<svg xmlns="http://www.w3.org/2000/svg" xmlns:xlink="http://www.w3.org/1999/xlink" width="850" zoomAndPan="magnify" viewBox="0 0 637.5 177.000001" height="236" preserveAspectRatio="xMidYMid meet"><defs><clipPath id="104dae9267"><path d="M 208.925781 24.414062 L 224.511719 24.414062 L 224.511719 40 L 208.925781 40 Z M 208.925781 24.414062 " clip-rule="nonzero"></path></clipPath><clipPath id="b7046b6ef4"><path d="M 216.71875 24.414062 C 212.414062 24.414062 208.925781 27.902344 208.925781 32.207031 C 208.925781 36.511719 212.414062 40 216.71875 40 C 221.023438 40 224.511719 36.511719 224.511719 32.207031 C 224.511719 27.902344 221.023438 24.414062 216.71875 24.414062 Z M 216.71875 24.414062 " clip-rule="nonzero"></path></clipPath><clipPath id="5f304a011d"><path d="M 0.925781 0.414062 L 16.511719 0.414062 L 16.511719 16 L 0.925781 16 Z M 0.925781 0.414062 " clip-rule="nonzero"></path></clipPath><clipPath id="ea1794cf33"><path d="M 8.71875 0.414062 C 4.414062 0.414062 0.925781 3.902344 0.925781 8.207031 C 0.925781 12.511719 4.414062 16 8.71875 16 C 13.023438 16 16.511719 12.511719 16.511719 8.207031 C 16.511719 3.902344 13.023438 0.414062 8.71875 0.414062 Z M 8.71875 0.414062 " clip-rule="nonzero"></path></clipPath><clipPath id="a62ff664a0"><rect x="0" width="17" y="0" height="16"></rect></clipPath></defs><path fill="#037db7" d="M 459.566406 20.539062 C 461.023438 20.4375 462.484375 20.378906 463.949219 20.371094 L 466.773438 20.332031 L 469.847656 20.3125 L 472.988281 20.289062 C 475.183594 20.273438 477.378906 20.265625 479.574219 20.257812 C 482.941406 20.242188 486.308594 20.199219 489.675781 20.15625 C 491.804688 20.148438 493.933594 20.136719 496.0625 20.132812 L 499.128906 20.082031 L 501.96875 20.089844 L 504.472656 20.070312 L 506.597656 20.539062 C 508.941406 22.960938 510.046875 25.476562 511.109375 28.636719 L 511.976562 31.175781 L 512.882812 33.917969 L 513.855469 36.789062 C 514.882812 39.832031 515.902344 42.875 516.917969 45.917969 C 517.585938 47.90625 518.257812 49.890625 518.929688 51.875 C 520.578125 56.777344 522.222656 61.679688 523.863281 66.585938 C 524.847656 69.527344 525.835938 72.464844 526.828125 75.402344 L 528.691406 80.933594 L 529.570312 83.519531 L 530.363281 85.890625 L 531.066406 87.964844 C 531.554688 89.660156 531.554688 89.660156 531.554688 91.578125 C 533.886719 91.554688 533.886719 91.554688 536.355469 90.617188 C 537.910156 88.085938 537.910156 88.085938 538.9375 84.8125 L 539.597656 82.964844 C 540.3125 80.941406 541.007812 78.914062 541.695312 76.878906 C 542.1875 75.46875 542.6875 74.054688 543.183594 72.644531 C 545.90625 64.886719 548.5 57.085938 551.082031 49.277344 L 551.871094 46.898438 C 553.140625 43.070312 554.394531 39.238281 555.625 35.402344 L 556.996094 31.199219 L 557.601562 29.273438 C 558.71875 25.871094 559.808594 23.160156 562.269531 20.539062 C 564.359375 20.070312 564.359375 20.070312 566.8125 20.089844 L 569.597656 20.082031 L 572.597656 20.132812 L 575.675781 20.140625 C 577.824219 20.152344 579.972656 20.167969 582.121094 20.199219 C 585.421875 20.238281 588.722656 20.257812 592.023438 20.269531 C 594.105469 20.28125 596.1875 20.296875 598.273438 20.3125 L 601.285156 20.332031 L 604.050781 20.371094 L 606.5 20.398438 L 608.34375 20.539062 L 609.304688 21.5 C 609.394531 24.363281 609.425781 27.207031 609.414062 30.070312 L 609.414062 32.792969 C 609.414062 35.78125 609.40625 38.765625 609.398438 41.753906 L 609.394531 47.949219 C 609.390625 53.394531 609.382812 58.839844 609.371094 64.285156 C 609.359375 69.839844 609.355469 75.394531 609.351562 80.945312 C 609.339844 91.851562 609.324219 102.753906 609.304688 113.65625 C 607.460938 113.816406 605.613281 113.972656 603.769531 114.128906 L 600.65625 114.394531 C 597.554688 114.636719 594.480469 114.746094 591.367188 114.738281 L 588.476562 114.746094 L 586.265625 114.617188 L 585.308594 113.65625 C 585.191406 111.421875 585.125 109.179688 585.109375 106.941406 L 585.082031 104.8125 C 585.050781 102.480469 585.027344 100.148438 585.003906 97.816406 L 584.945312 92.976562 C 584.890625 88.722656 584.839844 84.46875 584.796875 80.214844 C 584.746094 75.878906 584.695312 71.542969 584.640625 67.207031 C 584.539062 58.691406 584.441406 50.175781 584.347656 41.660156 C 581.992188 41.9375 581.992188 41.9375 579.546875 42.621094 C 577.929688 45.324219 577.929688 45.324219 576.824219 48.8125 L 576.113281 50.78125 C 575.339844 52.933594 574.59375 55.097656 573.847656 57.257812 C 573.316406 58.757812 572.777344 60.257812 572.238281 61.753906 C 571.101562 64.921875 569.972656 68.089844 568.847656 71.261719 C 566.179688 78.738281 563.390625 86.164062 560.585938 93.585938 C 559.699219 95.9375 558.820312 98.289062 557.945312 100.640625 L 556.320312 104.960938 L 555.578125 106.964844 C 554.546875 109.683594 553.792969 111.578125 551.710938 113.65625 C 549.074219 113.898438 546.535156 114.019531 543.890625 114.046875 L 541.539062 114.082031 C 539.894531 114.097656 538.25 114.113281 536.605469 114.121094 C 534.089844 114.136719 531.578125 114.195312 529.066406 114.257812 C 527.46875 114.269531 525.871094 114.28125 524.273438 114.289062 L 522 114.359375 C 519.863281 114.34375 519.863281 114.34375 516.199219 113.65625 C 512.386719 109.597656 510.933594 104.386719 509.222656 99.183594 C 508.640625 97.460938 508.054688 95.742188 507.46875 94.023438 L 506.558594 91.351562 C 505.085938 87.105469 503.515625 82.898438 501.933594 78.695312 L 501.003906 76.214844 C 500.070312 73.734375 499.136719 71.257812 498.199219 68.777344 L 496.285156 63.6875 C 494.152344 58.007812 494.152344 58.007812 491.992188 52.339844 C 491.480469 50.941406 491.007812 49.527344 490.574219 48.097656 C 489.871094 45.738281 489.871094 45.738281 488.363281 42.621094 C 485.921875 41.875 485.921875 41.875 483.5625 41.660156 L 483.535156 44.386719 C 483.441406 52.847656 483.339844 61.308594 483.238281 69.773438 C 483.183594 74.125 483.132812 78.472656 483.085938 82.824219 C 483.039062 87.019531 482.988281 91.214844 482.9375 95.410156 C 482.917969 97.015625 482.898438 98.617188 482.882812 100.222656 C 482.859375 102.460938 482.832031 104.699219 482.800781 106.941406 L 482.785156 108.96875 C 482.753906 110.535156 482.691406 112.097656 482.601562 113.65625 L 481.644531 114.617188 C 480.097656 114.714844 478.546875 114.742188 476.996094 114.746094 L 474.148438 114.75 L 471.144531 114.738281 L 468.15625 114.75 L 465.300781 114.746094 L 462.667969 114.742188 C 460.527344 114.617188 460.527344 114.617188 458.605469 113.65625 C 458.585938 101.660156 458.570312 89.660156 458.558594 77.660156 C 458.550781 72.089844 458.546875 66.519531 458.535156 60.945312 C 458.523438 55.574219 458.519531 50.203125 458.515625 44.832031 C 458.511719 42.777344 458.511719 40.722656 458.507812 38.667969 C 458.5 35.800781 458.496094 32.933594 458.496094 30.070312 L 458.488281 27.46875 C 458.492188 25.476562 458.542969 23.488281 458.605469 21.5 Z M 200.40625 20.539062 C 203.105469 20.238281 205.8125 20.085938 208.53125 20.089844 L 210.945312 20.066406 C 212.628906 20.058594 214.3125 20.054688 215.996094 20.058594 C 218.570312 20.058594 221.144531 20.019531 223.71875 19.976562 C 225.355469 19.972656 226.992188 19.96875 228.628906 19.96875 L 230.957031 19.921875 C 233.140625 19.949219 233.140625 19.949219 236.878906 20.539062 C 239.609375 23.132812 241.226562 26 242.855469 29.367188 L 244 31.695312 L 245.160156 34.101562 C 248.273438 40.492188 251.496094 46.832031 254.828125 53.117188 C 258.207031 59.5 261.539062 65.910156 264.816406 72.34375 L 266.035156 74.734375 C 267.671875 77.941406 269.304688 81.148438 270.933594 84.355469 C 272.152344 86.753906 273.371094 89.148438 274.597656 91.546875 L 275.765625 93.839844 C 278.542969 99.21875 281.550781 104.464844 284.789062 109.578125 L 285.832031 111.738281 L 284.871094 114.617188 C 274.769531 114.539062 264.664062 114.445312 254.5625 114.339844 C 249.871094 114.292969 245.179688 114.25 240.488281 114.214844 C 235.960938 114.175781 231.4375 114.132812 226.914062 114.082031 C 225.183594 114.0625 223.457031 114.050781 221.726562 114.039062 C 219.308594 114.019531 216.894531 113.996094 214.480469 113.964844 L 212.296875 113.957031 C 210.570312 113.929688 208.847656 113.804688 207.125 113.65625 C 204.753906 111.285156 204.292969 109.347656 203.285156 106.160156 C 201.917969 101.859375 201.917969 101.859375 200.226562 97.6875 L 199.445312 95.417969 L 200.40625 91.578125 L 244.558594 90.617188 C 243.277344 86.777344 242.328125 84.015625 240.414062 80.636719 L 239.105469 78.304688 L 237.71875 75.859375 C 234.28125 69.695312 230.910156 63.515625 227.761719 57.199219 L 226.851562 55.378906 C 225.417969 52.492188 224.089844 49.558594 222.871094 46.574219 L 221.523438 43.578125 L 219.601562 42.5 L 217.683594 42.621094 C 215.332031 44.601562 214.054688 46.664062 212.722656 49.410156 L 211.550781 51.800781 L 210.308594 54.386719 L 208.992188 57.085938 C 207.585938 59.984375 206.183594 62.878906 204.785156 65.777344 L 201.90625 71.703125 C 196.320312 83.203125 190.753906 94.71875 185.277344 106.269531 L 184.039062 108.871094 L 183 111.070312 C 182.167969 112.699219 182.167969 112.699219 181.207031 113.65625 C 179.078125 113.742188 176.945312 113.761719 174.816406 113.753906 L 172.882812 113.746094 C 170.839844 113.742188 168.792969 113.730469 166.75 113.71875 C 165.367188 113.710938 163.984375 113.707031 162.601562 113.703125 C 159.207031 113.695312 155.808594 113.679688 152.414062 113.65625 C 153.003906 109.367188 154.703125 105.886719 156.699219 102.101562 L 157.710938 100.140625 C 158.800781 98.042969 159.894531 95.949219 160.992188 93.859375 L 163.265625 89.480469 C 167.28125 81.753906 171.320312 74.039062 175.40625 66.347656 C 178.269531 60.941406 181.046875 55.496094 183.824219 50.042969 L 186.308594 45.164062 C 187.566406 42.703125 188.816406 40.238281 190.066406 37.773438 C 191.238281 35.457031 192.414062 33.140625 193.59375 30.832031 L 194.664062 28.695312 C 197.726562 22.714844 197.726562 22.714844 200.40625 20.539062 M 294.472656 20.539062 C 296.238281 20.445312 298.011719 20.414062 299.78125 20.414062 L 303.039062 20.410156 L 306.46875 20.421875 L 309.898438 20.410156 L 316.171875 20.417969 L 318.46875 20.539062 L 319.429688 21.5 C 319.582031 23.917969 319.675781 26.3125 319.730469 28.734375 C 319.75 29.375 319.769531 30.015625 319.785156 30.675781 C 319.851562 33.078125 319.910156 35.476562 319.96875 37.878906 L 320.386719 54.140625 L 381.820312 55.097656 L 381.820312 20.539062 L 407.734375 20.539062 L 408.695312 112.699219 C 404.964844 114.5625 403.660156 114.855469 399.683594 114.839844 L 396.714844 114.835938 L 393.636719 114.796875 L 390.523438 114.796875 C 384.957031 114.765625 384.957031 114.765625 382.777344 114.617188 L 381.820312 113.65625 C 381.664062 111.03125 381.570312 108.425781 381.515625 105.792969 L 381.453125 103.410156 C 381.390625 100.886719 381.332031 98.363281 381.277344 95.839844 L 381.152344 90.71875 C 381.050781 86.523438 380.953125 82.332031 380.859375 78.140625 L 377.546875 78.152344 C 373.429688 78.171875 369.3125 78.183594 365.195312 78.191406 C 363.421875 78.195312 361.652344 78.203125 359.882812 78.210938 C 354.074219 78.238281 348.269531 78.21875 342.464844 78.140625 L 340.324219 78.121094 C 338.441406 78.085938 336.554688 78.03125 334.671875 77.957031 L 331.542969 77.855469 L 329.027344 77.179688 C 326.0625 73.265625 324.785156 68.757812 323.234375 64.148438 C 322.433594 61.695312 322.433594 61.695312 320.386719 59.898438 L 320.398438 61.847656 C 320.441406 68.527344 320.472656 75.210938 320.492188 81.886719 C 320.503906 84.382812 320.515625 86.878906 320.53125 89.371094 C 320.554688 92.953125 320.566406 96.535156 320.574219 100.117188 L 320.605469 103.507812 L 320.605469 106.652344 L 320.617188 109.421875 C 320.386719 111.738281 320.386719 111.738281 318.46875 114.617188 C 316.0625 114.871094 316.0625 114.871094 313.066406 114.722656 L 309.816406 114.578125 L 306.410156 114.378906 L 302.992188 114.222656 C 296.988281 113.925781 296.988281 113.925781 294.472656 113.65625 L 293.511719 112.699219 C 293.414062 109.867188 293.382812 107.0625 293.386719 104.234375 L 293.382812 101.542969 C 293.378906 98.589844 293.378906 95.640625 293.382812 92.6875 L 293.382812 86.566406 C 293.378906 82.28125 293.382812 77.996094 293.386719 73.714844 C 293.390625 68.210938 293.390625 62.707031 293.382812 57.203125 C 293.378906 52.984375 293.378906 48.769531 293.382812 44.550781 C 293.382812 42.523438 293.382812 40.492188 293.382812 38.460938 C 293.378906 35.628906 293.382812 32.796875 293.386719 29.964844 L 293.382812 27.394531 C 293.390625 25.429688 293.445312 23.464844 293.511719 21.5 Z M 26.671875 22.460938 C 29.929688 24.089844 31.433594 25.070312 33.867188 27.546875 L 35.730469 29.433594 L 37.652344 31.398438 C 38.28125 32.039062 38.910156 32.675781 39.558594 33.332031 C 40.785156 34.578125 42.011719 35.824219 43.234375 37.074219 C 44.6875 38.550781 46.152344 40.015625 47.625 41.46875 C 49.707031 43.578125 49.707031 43.578125 51.929688 46.339844 C 54.46875 49.480469 57.464844 51.960938 60.582031 54.511719 C 62.1875 56.058594 62.1875 56.058594 63.148438 58.9375 L 65.066406 58.9375 L 65.066406 60.859375 L 66.984375 60.859375 C 68.339844 62.234375 68.339844 62.234375 69.925781 64.160156 C 72.613281 67.289062 75.320312 70.390625 78.144531 73.398438 L 80.222656 75.652344 L 82.34375 77.179688 C 84.640625 77.234375 84.640625 77.234375 87.144531 76.21875 C 89.125 74.550781 91.011719 72.777344 92.800781 70.902344 L 94.402344 69.277344 C 96.089844 67.558594 97.765625 65.828125 99.441406 64.097656 C 101.644531 61.84375 103.847656 59.589844 106.058594 57.339844 L 107.679688 55.6875 C 110.910156 52.40625 114.285156 49.277344 117.796875 46.304688 C 120.398438 43.988281 122.84375 41.527344 125.289062 39.054688 L 126.742188 37.585938 C 128.730469 35.566406 130.71875 33.546875 132.699219 31.523438 C 134.167969 30.03125 135.636719 28.542969 137.109375 27.054688 L 139.730469 24.378906 L 141.855469 22.460938 L 143.773438 22.460938 C 144.148438 28.839844 144.429688 35.222656 144.621094 41.609375 C 144.722656 44.21875 144.898438 46.8125 145.089844 49.414062 C 145.285156 53.707031 145.351562 57.765625 143.773438 61.820312 C 140.515625 66.421875 135.90625 69.617188 131.359375 72.851562 C 128.246094 75.121094 125.375 77.648438 122.476562 80.179688 L 119.160156 83.015625 C 115.015625 86.597656 111 90.308594 106.976562 94.023438 C 104.292969 96.507812 101.566406 98.941406 98.796875 101.332031 C 97.132812 102.765625 95.484375 104.214844 93.847656 105.675781 C 92.8125 106.578125 91.777344 107.476562 90.742188 108.378906 L 89.265625 109.710938 C 87.847656 110.929688 87.847656 110.929688 85.222656 112.699219 L 83.28125 112.777344 C 80.519531 111.265625 78.496094 109.292969 76.222656 107.117188 C 75.210938 106.164062 74.191406 105.207031 73.171875 104.257812 L 71.554688 102.738281 C 68.640625 100.042969 65.664062 97.421875 62.667969 94.820312 L 60.960938 93.304688 C 58.203125 90.921875 56.160156 89.398438 52.589844 88.699219 C 50.589844 90.847656 48.597656 93 46.609375 95.15625 C 43.976562 98.019531 41.40625 100.9375 38.898438 103.910156 L 37.355469 105.742188 C 36.367188 106.921875 35.386719 108.105469 34.410156 109.292969 C 31.902344 112.289062 30.242188 113.792969 26.671875 115.578125 Z M 26.671875 22.460938 " fill-opacity="1" fill-rule="nonzero"></path><path fill="#037db7" d="M 459.566406 20.539062 C 461.023438 20.4375 462.484375 20.378906 463.949219 20.371094 L 466.773438 20.332031 L 469.847656 20.3125 L 472.988281 20.289062 C 475.183594 20.273438 477.378906 20.265625 479.574219 20.257812 C 482.941406 20.242188 486.308594 20.199219 489.675781 20.15625 C 491.804688 20.148438 493.933594 20.136719 496.0625 20.132812 L 499.128906 20.082031 L 501.96875 20.089844 L 504.472656 20.070312 L 506.597656 20.539062 C 508.941406 22.960938 510.046875 25.476562 511.109375 28.636719 L 511.976562 31.175781 L 512.882812 33.917969 L 513.855469 36.789062 C 514.882812 39.832031 515.902344 42.875 516.917969 45.917969 C 517.585938 47.90625 518.257812 49.890625 518.929688 51.875 C 520.578125 56.777344 522.222656 61.679688 523.863281 66.585938 C 524.847656 69.527344 525.835938 72.464844 526.828125 75.402344 L 528.691406 80.933594 L 529.570312 83.519531 L 530.363281 85.890625 L 531.066406 87.964844 C 531.554688 89.660156 531.554688 89.660156 531.554688 91.578125 C 533.886719 91.554688 533.886719 91.554688 536.355469 90.617188 C 537.910156 88.085938 537.910156 88.085938 538.9375 84.8125 L 539.597656 82.964844 C 540.3125 80.941406 541.007812 78.914062 541.695312 76.878906 C 542.1875 75.46875 542.6875 74.054688 543.183594 72.644531 C 545.90625 64.886719 548.5 57.085938 551.082031 49.277344 L 551.871094 46.898438 C 553.140625 43.070312 554.394531 39.238281 555.625 35.402344 L 556.996094 31.199219 L 557.601562 29.273438 C 558.71875 25.871094 559.808594 23.160156 562.269531 20.539062 C 564.359375 20.070312 564.359375 20.070312 566.8125 20.089844 L 569.597656 20.082031 L 572.597656 20.132812 L 575.675781 20.140625 C 577.824219 20.152344 579.972656 20.167969 582.121094 20.199219 C 585.421875 20.238281 588.722656 20.257812 592.023438 20.269531 C 594.105469 20.28125 596.1875 20.296875 598.273438 20.3125 L 601.285156 20.332031 L 604.050781 20.371094 L 606.5 20.398438 L 608.34375 20.539062 L 609.304688 21.5 C 609.394531 24.363281 609.425781 27.207031 609.414062 30.070312 L 609.414062 32.792969 C 609.414062 35.78125 609.40625 38.765625 609.398438 41.753906 L 609.394531 47.949219 C 609.390625 53.394531 609.382812 58.839844 609.371094 64.285156 C 609.359375 69.839844 609.355469 75.394531 609.351562 80.945312 C 609.339844 91.851562 609.324219 102.753906 609.304688 113.65625 C 607.460938 113.816406 605.613281 113.972656 603.769531 114.128906 L 600.65625 114.394531 C 597.554688 114.636719 594.480469 114.746094 591.367188 114.738281 L 588.476562 114.746094 L 586.265625 114.617188 L 585.308594 113.65625 C 585.214844 111.433594 585.175781 109.210938 585.1875 106.984375 L 585.179688 104.871094 C 585.175781 103.351562 585.175781 101.832031 585.175781 100.3125 C 585.171875 97.085938 585.152344 93.855469 585.132812 90.628906 C 585.09375 84.613281 585.066406 78.601562 585.066406 72.585938 C 585.066406 68.40625 585.046875 64.230469 585.007812 60.050781 C 585 58.457031 584.996094 56.863281 585.003906 55.269531 C 585.011719 53.039062 584.992188 50.808594 584.964844 48.582031 L 584.996094 46.578125 C 585.003906 44.511719 585.003906 44.511719 584.347656 41.660156 C 581.988281 39.9375 581.988281 39.9375 579.546875 38.78125 L 579.546875 35.898438 L 586.265625 35.898438 L 586.265625 37.820312 L 589.148438 37.820312 C 590.445312 40.421875 590.167969 42.628906 590.105469 45.5 L 592.027344 45.5 L 592.027344 43.578125 L 594.90625 43.578125 L 594.460938 45.066406 C 593.785156 48.164062 593.613281 51.214844 593.40625 54.378906 L 593.164062 58.054688 L 592.988281 60.859375 L 591.066406 60.859375 L 591.082031 63.585938 C 591.097656 66.949219 591.109375 70.308594 591.121094 73.667969 C 591.125 75.117188 591.132812 76.570312 591.140625 78.019531 C 591.152344 80.113281 591.15625 82.203125 591.160156 84.296875 L 591.175781 88.105469 C 591.078125 91.28125 590.714844 94.222656 590.105469 97.339844 L 592.027344 97.339844 L 592.027344 102.136719 L 593.945312 102.136719 L 596.824219 111.738281 L 605.464844 111.738281 C 606.707031 108.007812 606.550781 104.484375 606.535156 100.601562 L 606.535156 98.046875 C 606.535156 95.257812 606.523438 92.46875 606.519531 89.679688 L 606.515625 83.878906 C 606.511719 78.789062 606.503906 73.699219 606.492188 68.609375 C 606.480469 63.417969 606.476562 58.222656 606.472656 53.03125 C 606.460938 42.839844 606.445312 32.652344 606.425781 22.460938 C 601.644531 22.574219 596.863281 22.691406 592.082031 22.816406 C 590.460938 22.859375 588.835938 22.898438 587.210938 22.9375 C 584.867188 22.996094 582.523438 23.054688 580.179688 23.117188 L 578.007812 23.164062 C 573.347656 23.292969 568.792969 23.589844 564.191406 24.378906 L 563.230469 26.300781 L 560.351562 26.300781 L 560.066406 27.859375 C 559.042969 33.226562 557.878906 38.5625 556.632812 43.878906 C 556.488281 44.53125 556.347656 45.1875 556.199219 45.863281 C 555.445312 48.992188 554.710938 51.117188 552.652344 53.621094 C 550.078125 56.925781 549.691406 59.972656 549.074219 64.039062 L 548.710938 66.195312 C 548.417969 67.933594 548.144531 69.675781 547.875 71.417969 L 545.953125 71.417969 L 545.953125 73.339844 L 544.035156 73.339844 L 543.679688 75.378906 C 542.714844 80.847656 541.613281 86.210938 540.195312 91.578125 L 538.273438 91.578125 L 536.355469 95.417969 C 531.796875 94.578125 531.796875 94.578125 529.636719 93.5 C 528.992188 91.878906 528.992188 91.878906 528.433594 89.792969 L 527.808594 87.507812 L 527.175781 85.097656 C 526.964844 84.320312 526.75 83.539062 526.53125 82.738281 C 525.523438 78.984375 524.570312 75.246094 523.875 71.417969 L 521.957031 71.417969 L 521.117188 69.199219 C 520.074219 66.476562 520.074219 66.476562 518.117188 63.738281 L 518.117188 60.859375 L 515.238281 60.859375 L 515.019531 59.101562 C 514.683594 56.445312 514.332031 53.792969 513.976562 51.140625 L 513.636719 48.371094 C 512.957031 43.371094 512.160156 39.324219 509.480469 34.941406 L 508.519531 33.980469 C 508.300781 32.523438 508.121094 31.066406 507.980469 29.601562 L 507.734375 27.195312 L 507.558594 25.339844 L 502.761719 24.378906 L 502.761719 22.460938 C 497.207031 22.574219 491.65625 22.691406 486.105469 22.816406 C 484.214844 22.859375 482.328125 22.898438 480.4375 22.9375 C 477.722656 22.992188 475.011719 23.054688 472.296875 23.117188 L 469.730469 23.164062 L 467.34375 23.222656 L 465.246094 23.269531 C 463.195312 23.363281 463.195312 23.363281 460.527344 24.378906 L 460.527344 110.777344 C 463.53125 111.527344 465.460938 111.847656 468.445312 111.796875 L 472.042969 111.738281 L 472.042969 108.859375 L 473.964844 108.859375 L 473.964844 106.9375 L 476.84375 106.9375 L 476.753906 104.605469 C 476.039062 84.910156 475.746094 65.207031 475.882812 45.5 L 473.964844 45.5 L 472.042969 53.179688 L 471.085938 53.179688 C 470.84375 50.238281 470.628906 47.300781 470.425781 44.359375 L 470.214844 41.84375 C 470.0625 39.507812 469.957031 37.277344 470.125 34.941406 C 471.605469 32.132812 471.605469 32.132812 473.003906 30.140625 L 472.042969 27.261719 C 477.601562 27.0625 482.054688 27.652344 487.402344 29.179688 L 486.441406 32.058594 L 489.320312 33.019531 L 483.5625 33.980469 L 483.5625 35.898438 L 486.261719 35.660156 L 489.320312 35.898438 C 490.910156 37.488281 490.910156 37.488281 492.203125 39.738281 C 492.691406 42.425781 492.691406 42.425781 492.863281 45.257812 L 493.054688 48.125 L 493.160156 50.300781 L 497 51.257812 C 497.488281 53.238281 497.964844 55.21875 498.441406 57.199219 L 499.25 60.539062 C 499.800781 63.324219 500.007812 65.71875 499.878906 68.539062 L 501.800781 68.539062 L 502.761719 75.257812 L 504.679688 75.257812 L 505.207031 76.878906 C 506.40625 80.519531 507.632812 84.121094 509.058594 87.679688 C 510.160156 90.539062 510.808594 93.296875 511.339844 96.320312 C 511.980469 99.636719 512.75 102.800781 513.917969 105.976562 C 514.167969 106.671875 514.417969 107.363281 514.675781 108.078125 C 516.207031 110.105469 516.207031 110.105469 519.351562 111 C 525.210938 112.207031 531.179688 112.054688 537.136719 112.039062 L 540.703125 112.085938 L 544.113281 112.085938 L 547.210938 112.097656 C 549.800781 111.949219 549.800781 111.949219 551.519531 110.449219 C 553.203125 108.128906 553.875 105.710938 554.710938 102.976562 C 556.433594 97.417969 556.433594 97.417969 557.472656 96.378906 C 559.363281 89.671875 559.628906 83.144531 559.390625 76.21875 L 561.3125 76.21875 L 561.3125 79.097656 L 563.230469 79.097656 C 563.394531 76.839844 563.554688 74.578125 563.710938 72.320312 L 563.980469 68.503906 C 564.175781 64.984375 564.226562 61.503906 564.191406 57.980469 L 570.910156 58.9375 C 572.730469 55.628906 573.785156 52.230469 574.871094 48.621094 L 575.894531 45.214844 L 576.667969 42.621094 L 579.546875 42.621094 C 575.09375 54.667969 570.621094 66.707031 566.132812 78.738281 C 564.289062 83.691406 562.4375 88.640625 560.578125 93.589844 C 559.988281 95.167969 559.398438 96.746094 558.808594 98.328125 C 557.984375 100.539062 557.152344 102.75 556.320312 104.960938 L 555.578125 106.964844 C 554.546875 109.683594 553.792969 111.578125 551.710938 113.65625 C 549.074219 113.898438 546.535156 114.019531 543.890625 114.046875 L 541.539062 114.082031 C 539.894531 114.097656 538.25 114.113281 536.605469 114.121094 C 534.089844 114.136719 531.578125 114.195312 529.066406 114.257812 C 527.46875 114.269531 525.871094 114.28125 524.273438 114.289062 L 522 114.359375 C 519.863281 114.34375 519.863281 114.34375 516.199219 113.65625 C 512.386719 109.597656 510.933594 104.386719 509.222656 99.183594 C 508.640625 97.460938 508.054688 95.742188 507.46875 94.023438 L 506.558594 91.351562 C 505.085938 87.105469 503.515625 82.898438 501.9375 78.695312 L 501.003906 76.214844 C 500.070312 73.734375 499.136719 71.257812 498.199219 68.777344 L 496.285156 63.6875 C 494.152344 58.007812 494.152344 58.007812 491.992188 52.339844 C 491.480469 50.941406 491.007812 49.527344 490.574219 48.097656 C 489.871094 45.738281 489.871094 45.738281 488.363281 42.621094 C 485.921875 41.875 485.921875 41.875 483.5625 41.660156 L 483.535156 44.386719 C 483.441406 52.847656 483.339844 61.308594 483.238281 69.773438 C 483.183594 74.125 483.132812 78.472656 483.085938 82.824219 C 483.039062 87.019531 482.988281 91.214844 482.9375 95.410156 C 482.917969 97.015625 482.898438 98.617188 482.882812 100.222656 C 482.859375 102.460938 482.832031 104.699219 482.800781 106.941406 L 482.785156 108.96875 C 482.753906 110.535156 482.691406 112.097656 482.601562 113.65625 L 481.644531 114.617188 C 480.097656 114.714844 478.546875 114.742188 476.996094 114.746094 L 474.148438 114.75 L 471.144531 114.738281 L 468.15625 114.75 L 465.300781 114.746094 L 462.667969 114.742188 C 460.527344 114.617188 460.527344 114.617188 458.605469 113.65625 C 458.585938 101.660156 458.570312 89.660156 458.558594 77.660156 C 458.550781 72.089844 458.546875 66.519531 458.535156 60.945312 C 458.523438 55.574219 458.519531 50.203125 458.515625 44.832031 C 458.511719 42.777344 458.511719 40.722656 458.507812 38.667969 C 458.5 35.800781 458.496094 32.933594 458.496094 30.070312 L 458.488281 27.46875 C 458.492188 25.476562 458.542969 23.488281 458.605469 21.5 Z M 459.566406 20.539062 " fill-opacity="1" fill-rule="nonzero"></path><path fill="#037db7" d="M 444.207031 45.5 L 446.128906 46.460938 L 446.128906 113.65625 L 421.171875 113.65625 L 420.210938 112.699219 C 420.109375 111.003906 420.050781 109.308594 420.042969 107.613281 L 420.003906 104.320312 L 419.984375 100.734375 L 419.960938 97.082031 C 419.945312 94.523438 419.9375 91.964844 419.929688 89.40625 C 419.917969 86.125 419.886719 82.847656 419.847656 79.570312 C 419.816406 76.445312 419.8125 73.320312 419.804688 70.195312 L 419.753906 66.625 L 419.761719 63.3125 L 419.742188 60.398438 L 420.210938 57.980469 C 424.128906 54.300781 429.441406 52.347656 434.25 50.058594 L 437.0625 48.6875 L 439.746094 47.402344 L 442.203125 46.226562 Z M 194.648438 39.738281 L 196.566406 40.699219 L 196.566406 45.5 L 193.6875 45.5 L 195.605469 56.058594 L 200.40625 55.097656 L 201.367188 63.738281 L 203.285156 63.738281 L 200.40625 72.378906 L 198.484375 72.378906 L 198.308594 74.199219 L 198.066406 76.578125 L 197.828125 78.941406 C 197.527344 81.019531 197.527344 81.019531 196.566406 82.9375 C 194.105469 83.539062 194.105469 83.539062 191.765625 83.898438 L 190.808594 92.539062 L 187.925781 93.5 C 187.265625 95.730469 186.625 97.972656 186.007812 100.21875 C 184.566406 102.078125 184.566406 102.078125 183.128906 103.097656 L 181.207031 103.097656 L 180.25 106.9375 L 177.371094 106.9375 L 176.410156 103.097656 L 172.570312 103.097656 L 171.609375 109.816406 L 175.449219 110.777344 C 171.738281 111.992188 168.027344 111.84375 164.171875 111.796875 L 162.144531 111.785156 C 160.5 111.773438 158.855469 111.757812 157.210938 111.738281 C 157.359375 103.214844 160.90625 96.976562 164.890625 89.660156 L 167.769531 91.578125 L 166.8125 93.5 L 170.648438 94.457031 L 170.648438 88.699219 L 168.730469 88.699219 L 169.691406 81.980469 L 171.609375 81.980469 L 171.609375 79.097656 L 173.53125 79.097656 L 173.890625 77.480469 C 174.546875 75.046875 175.441406 72.78125 176.410156 70.460938 L 178.328125 70.460938 L 178.117188 67.515625 C 178.363281 63.160156 179.523438 60.832031 181.6875 57.078125 L 183.578125 53.753906 L 185.046875 51.257812 L 187.925781 51.257812 L 187.75 48.621094 C 187.925781 45.5 187.925781 45.5 189.367188 43.21875 L 190.808594 41.660156 L 193.6875 43.578125 Z M 194.648438 39.738281 " fill-opacity="1" fill-rule="nonzero"></path><path fill="#0a77a1" d="M 294.472656 20.539062 C 296.238281 20.445312 298.011719 20.414062 299.78125 20.414062 L 303.039062 20.410156 L 306.46875 20.421875 L 309.898438 20.410156 L 316.171875 20.417969 L 318.46875 20.539062 L 319.429688 21.5 C 319.582031 23.917969 319.675781 26.3125 319.730469 28.734375 C 319.75 29.375 319.769531 30.015625 319.785156 30.675781 C 319.851562 33.078125 319.910156 35.476562 319.96875 37.878906 L 320.386719 54.140625 L 381.820312 55.097656 L 381.820312 20.539062 L 407.734375 20.539062 L 408.695312 112.699219 C 404.964844 114.5625 403.660156 114.855469 399.683594 114.839844 L 396.714844 114.835938 L 393.636719 114.796875 L 390.523438 114.796875 C 384.957031 114.765625 384.957031 114.765625 382.777344 114.617188 L 381.820312 113.65625 C 381.734375 111.039062 381.703125 108.417969 381.722656 105.792969 L 381.730469 103.410156 C 381.734375 100.886719 381.746094 98.363281 381.757812 95.839844 C 381.761719 94.132812 381.769531 92.425781 381.769531 90.71875 C 381.78125 86.523438 381.796875 82.332031 381.820312 78.140625 L 385.65625 79.097656 L 385.65625 112.699219 L 404.855469 111.738281 L 405.816406 22.460938 L 397.175781 22.460938 L 397.175781 24.378906 L 395.175781 24.347656 C 394.3125 24.335938 393.449219 24.328125 392.558594 24.320312 L 389.957031 24.285156 C 387.449219 24.273438 387.449219 24.273438 384.699219 25.339844 L 384.699219 48.378906 L 386.617188 48.378906 L 386.617188 55.097656 C 380.394531 58.496094 374.738281 58.367188 367.753906 58.292969 L 364.222656 58.289062 C 361.765625 58.28125 359.308594 58.269531 356.847656 58.25 C 353.097656 58.21875 349.351562 58.210938 345.601562 58.203125 C 343.207031 58.195312 340.8125 58.183594 338.417969 58.175781 L 335.039062 58.160156 C 329.429688 58.113281 324.015625 57.863281 318.46875 57.019531 L 319.429688 59.898438 C 319.546875 61.578125 319.617188 63.257812 319.65625 64.9375 L 319.730469 68.054688 L 319.800781 71.417969 L 319.875 74.871094 C 319.921875 77.285156 319.972656 79.695312 320.015625 82.105469 C 320.085938 85.804688 320.175781 89.5 320.261719 93.199219 C 320.308594 95.539062 320.355469 97.878906 320.398438 100.21875 L 320.484375 103.582031 L 320.53125 106.699219 L 320.589844 109.445312 C 320.386719 111.738281 320.386719 111.738281 318.46875 114.617188 C 316.601562 114.898438 316.601562 114.898438 314.507812 114.796875 L 310.789062 114.617188 L 311.75 112.699219 L 313.667969 112.039062 L 315.589844 110.777344 C 316.710938 105.394531 316.675781 100.0625 316.640625 94.582031 L 316.636719 91.898438 C 316.632812 89.09375 316.621094 86.285156 316.609375 83.476562 C 316.601562 81.566406 316.597656 79.65625 316.59375 77.742188 C 316.585938 73.074219 316.570312 68.40625 316.546875 63.738281 L 313.667969 63.738281 C 313.007812 62 313.007812 62 312.707031 59.898438 C 313.648438 58.921875 314.609375 57.960938 315.589844 57.019531 L 315.589844 53.179688 L 313.667969 53.179688 L 313.667969 48.378906 L 316.546875 47.417969 L 316.546875 22.460938 L 297.351562 22.460938 C 295.875 25.414062 296.257812 28.519531 296.265625 31.761719 L 296.261719 34.070312 C 296.257812 36.601562 296.257812 39.128906 296.261719 41.660156 L 296.261719 46.941406 C 296.261719 50.640625 296.261719 54.339844 296.265625 58.039062 C 296.269531 62.761719 296.269531 67.480469 296.261719 72.203125 C 296.257812 75.84375 296.257812 79.488281 296.261719 83.128906 C 296.261719 84.867188 296.261719 86.609375 296.261719 88.347656 C 296.25 96.84375 296.261719 105.214844 297.351562 113.65625 L 293.511719 112.699219 C 293.488281 100.824219 293.472656 88.949219 293.460938 77.074219 C 293.457031 71.5625 293.449219 66.050781 293.441406 60.535156 C 293.429688 55.222656 293.421875 49.90625 293.421875 44.589844 C 293.417969 42.558594 293.414062 40.523438 293.410156 38.492188 C 293.40625 35.652344 293.402344 32.816406 293.402344 29.980469 L 293.394531 27.40625 C 293.394531 25.4375 293.449219 23.46875 293.511719 21.5 Z M 294.472656 20.539062 " fill-opacity="1" fill-rule="nonzero"></path><path fill="#037db7" d="M 64.105469 74.300781 L 68.90625 75.257812 L 68.90625 79.097656 L 70.59375 79.066406 C 74.007812 79.027344 77.171875 79.03125 80.542969 79.640625 C 83.882812 80.148438 86.710938 79.695312 90.023438 79.097656 L 90.023438 86.777344 L 100.582031 87.738281 L 100.582031 89.660156 L 104.421875 89.660156 C 102.976562 94.789062 99.457031 98.429688 95.78125 102.136719 L 93.863281 103.097656 L 92.660156 105.257812 C 90.511719 108.636719 88.519531 110.410156 85.222656 112.699219 C 83.484375 112.667969 83.484375 112.667969 81.382812 111.738281 C 79.378906 110.089844 77.441406 108.371094 75.566406 106.578125 L 74.027344 105.136719 C 72.632812 103.824219 71.246094 102.503906 69.867188 101.179688 L 68.070312 99.640625 L 66.984375 98.296875 L 66.984375 94.457031 L 64.105469 94.457031 C 62.703125 91.917969 62.1875 90.71875 62.1875 87.738281 L 60.265625 87.738281 L 61.226562 82.9375 L 65.066406 82.9375 Z M 64.105469 74.300781 " fill-opacity="1" fill-rule="nonzero"></path><path fill="#d62027" d="M 430.769531 -71.617188 L 432.691406 -71.617188 L 432.691406 -15.9375 C 424.742188 -15.328125 417.054688 -14.84375 409.125 -14.886719 L 406.144531 -14.890625 C 403.054688 -14.894531 399.964844 -14.90625 396.875 -14.917969 C 394.757812 -14.925781 392.640625 -14.929688 390.527344 -14.933594 C 385.382812 -14.941406 380.242188 -14.957031 375.097656 -14.980469 C 375.65625 -17.710938 376.039062 -18.796875 377.917969 -20.980469 L 379.898438 -22.660156 L 381.820312 -22.660156 L 381.820312 -24.578125 C 383.058594 -25.796875 383.058594 -25.796875 384.878906 -27.277344 C 389.25 -30.984375 393.25 -34.992188 397.25 -39.089844 C 399.917969 -41.796875 402.632812 -44.375 405.523438 -46.839844 C 408.808594 -49.683594 411.902344 -52.6875 414.957031 -55.773438 L 416.34375 -57.175781 C 418.242188 -59.101562 420.136719 -61.03125 422.027344 -62.964844 C 423.425781 -64.390625 424.828125 -65.8125 426.234375 -67.234375 L 428.734375 -69.785156 Z M 429.8125 -57.21875 L 429.8125 -38.976562 L 427.890625 -38.976562 L 427.890625 -50.5 L 425.972656 -50.5 L 425.972656 -48.578125 L 422.3125 -48.519531 L 420.253906 -48.484375 C 418.292969 -48.578125 418.292969 -48.578125 415.414062 -49.539062 L 414.453125 -47.617188 L 412.171875 -46.777344 C 409.550781 -45.890625 409.550781 -45.890625 408.09375 -43.71875 L 406.773438 -41.859375 L 403.894531 -40.898438 L 403.894531 -38.976562 L 401.976562 -38.976562 C 402.5 -35.738281 402.988281 -34.101562 404.855469 -31.296875 L 406.773438 -31.296875 L 407.734375 -23.617188 L 402.933594 -23.617188 L 401.976562 -27.457031 L 399.097656 -27.457031 L 398.136719 -30.339844 L 392.375 -28.417969 L 392.375 -26.5 L 389.496094 -26.5 L 387.578125 -23.617188 C 385.710938 -22.707031 385.710938 -22.707031 383.617188 -22 L 381.511719 -21.269531 L 379.898438 -20.738281 L 379.898438 -17.859375 L 380.859375 -16.898438 C 382.449219 -16.816406 384.042969 -16.777344 385.636719 -16.789062 L 388.722656 -16.789062 L 392.082031 -16.804688 L 395.496094 -16.808594 C 399.117188 -16.8125 402.734375 -16.828125 406.355469 -16.839844 C 408.800781 -16.84375 411.246094 -16.847656 413.695312 -16.851562 C 419.707031 -16.863281 425.71875 -16.878906 431.730469 -16.898438 L 431.730469 -57.21875 Z M 142.816406 78.140625 L 144.734375 79.097656 L 143.773438 113.65625 L 108.257812 113.65625 L 111.140625 108.859375 L 113.058594 108.859375 L 113.058594 106.9375 C 114.332031 105.683594 114.332031 105.683594 116.179688 104.175781 C 121.847656 99.351562 127.019531 94.039062 132.257812 88.757812 L 135.34375 85.660156 C 137.835938 83.15625 140.324219 80.648438 142.816406 78.140625 " fill-opacity="1" fill-rule="nonzero"></path><path fill="#0a77a1" d="M 459.566406 20.539062 C 466.210938 20.441406 472.855469 20.375 479.503906 20.328125 C 481.765625 20.308594 484.027344 20.285156 486.289062 20.25 C 489.535156 20.203125 492.78125 20.183594 496.03125 20.164062 L 499.101562 20.105469 L 501.953125 20.105469 L 504.46875 20.078125 L 506.597656 20.539062 C 508.941406 22.960938 510.046875 25.476562 511.109375 28.636719 L 511.976562 31.175781 L 512.882812 33.917969 L 513.855469 36.789062 C 514.882812 39.832031 515.902344 42.875 516.917969 45.917969 C 517.585938 47.90625 518.257812 49.890625 518.929688 51.875 C 520.578125 56.777344 522.222656 61.679688 523.863281 66.585938 C 524.847656 69.527344 525.835938 72.464844 526.828125 75.402344 L 528.691406 80.933594 L 529.570312 83.519531 L 530.363281 85.890625 L 531.066406 87.964844 C 531.554688 89.660156 531.554688 89.660156 531.554688 91.578125 C 533.886719 91.554688 533.886719 91.554688 536.355469 90.617188 C 537.910156 88.085938 537.910156 88.085938 538.9375 84.8125 L 539.597656 82.964844 C 540.3125 80.941406 541.007812 78.914062 541.695312 76.878906 C 542.1875 75.46875 542.6875 74.054688 543.183594 72.644531 C 545.90625 64.886719 548.5 57.085938 551.082031 49.277344 L 551.871094 46.898438 C 553.140625 43.070312 554.394531 39.238281 555.625 35.402344 L 556.996094 31.199219 L 557.601562 29.273438 C 558.71875 25.871094 559.808594 23.160156 562.269531 20.539062 C 564.359375 20.070312 564.359375 20.070312 566.8125 20.089844 L 569.597656 20.082031 L 572.597656 20.132812 L 575.675781 20.140625 C 577.824219 20.152344 579.972656 20.167969 582.121094 20.199219 C 585.421875 20.238281 588.722656 20.257812 592.023438 20.269531 C 594.105469 20.28125 596.1875 20.296875 598.273438 20.3125 L 601.285156 20.332031 L 604.050781 20.371094 L 606.5 20.398438 L 608.34375 20.539062 L 609.304688 21.5 C 609.394531 24.363281 609.425781 27.207031 609.414062 30.070312 L 609.414062 32.792969 C 609.414062 35.78125 609.40625 38.765625 609.398438 41.753906 L 609.394531 47.949219 C 609.390625 53.394531 609.382812 58.839844 609.371094 64.285156 C 609.359375 69.839844 609.355469 75.394531 609.351562 80.945312 C 609.339844 91.851562 609.324219 102.753906 609.304688 113.65625 L 607.382812 112.699219 L 607.382812 23.421875 C 585.730469 23.007812 585.730469 23.007812 564.191406 24.378906 L 563.230469 26.300781 L 560.351562 26.300781 L 560.066406 27.859375 C 559.042969 33.226562 557.878906 38.5625 556.632812 43.878906 C 556.488281 44.53125 556.347656 45.1875 556.199219 45.863281 C 555.445312 48.992188 554.710938 51.117188 552.652344 53.621094 C 550.078125 56.925781 549.691406 59.972656 549.074219 64.039062 L 548.710938 66.195312 C 548.417969 67.933594 548.144531 69.675781 547.875 71.417969 L 545.953125 71.417969 L 545.953125 73.339844 L 544.035156 73.339844 L 543.679688 75.378906 C 542.714844 80.847656 541.613281 86.210938 540.195312 91.578125 L 538.273438 91.578125 L 536.355469 95.417969 C 531.796875 94.578125 531.796875 94.578125 529.636719 93.5 C 528.992188 91.878906 528.992188 91.878906 528.433594 89.792969 L 527.808594 87.507812 L 527.175781 85.097656 C 526.964844 84.320312 526.75 83.539062 526.53125 82.738281 C 525.523438 78.984375 524.570312 75.246094 523.875 71.417969 L 521.957031 71.417969 L 521.117188 69.199219 C 520.074219 66.476562 520.074219 66.476562 518.117188 63.738281 L 518.117188 60.859375 L 515.238281 60.859375 L 515.019531 59.101562 C 514.683594 56.445312 514.332031 53.792969 513.976562 51.140625 L 513.636719 48.371094 C 512.957031 43.371094 512.160156 39.324219 509.480469 34.941406 L 508.519531 33.980469 C 508.300781 32.523438 508.121094 31.066406 507.980469 29.601562 L 507.734375 27.195312 L 507.558594 25.339844 L 502.761719 24.378906 L 502.761719 22.460938 C 496.917969 22.4375 491.074219 22.417969 485.230469 22.40625 C 483.242188 22.402344 481.253906 22.394531 479.265625 22.386719 C 476.410156 22.378906 473.558594 22.371094 470.703125 22.367188 L 467.996094 22.351562 L 465.492188 22.351562 L 463.285156 22.34375 C 461.398438 22.347656 461.398438 22.347656 459.566406 23.421875 Z M 459.566406 20.539062 " fill-opacity="1" fill-rule="nonzero"></path><path fill="#037db7" d="M 429.390625 19.460938 L 431.484375 19.464844 C 436.425781 19.507812 441.230469 19.839844 446.128906 20.539062 C 446.207031 23.039062 446.261719 25.539062 446.308594 28.039062 L 446.382812 30.1875 C 446.410156 32.257812 446.410156 32.257812 446.128906 35.898438 C 444.261719 38.257812 442.242188 39.433594 439.535156 40.671875 L 437.382812 41.667969 L 435.148438 42.679688 C 433.691406 43.351562 432.234375 44.023438 430.773438 44.691406 L 428.820312 45.582031 C 427.511719 46.191406 426.222656 46.839844 424.953125 47.53125 C 423.09375 48.378906 423.09375 48.378906 420.210938 48.378906 L 420.210938 20.539062 C 423.140625 19.078125 426.183594 19.441406 429.390625 19.460938 " fill-opacity="1" fill-rule="nonzero"></path><path fill="#656264" d="M 460.527344 145.335938 L 608.34375 145.335938 L 608.34375 149.175781 L 460.527344 149.175781 Z M 26.671875 144.378906 L 175.449219 144.378906 L 174.488281 148.21875 L 27.632812 148.21875 Z M 26.671875 144.378906 " fill-opacity="1" fill-rule="nonzero"></path><path fill="#0a77a1" d="M 483.5625 38.78125 C 486.261719 38.539062 486.261719 38.539062 489.320312 38.78125 C 491.0625 40.21875 491.0625 40.21875 492.203125 42.621094 C 492.703125 45.191406 492.941406 47.679688 493.160156 50.300781 L 497 51.257812 C 497.488281 53.238281 497.964844 55.21875 498.441406 57.199219 L 499.25 60.539062 C 499.800781 63.324219 500.007812 65.71875 499.878906 68.539062 L 501.800781 68.539062 L 502.761719 75.257812 L 504.679688 75.257812 L 505.207031 76.878906 C 506.40625 80.519531 507.632812 84.121094 509.058594 87.679688 C 510.160156 90.539062 510.808594 93.296875 511.339844 96.320312 C 511.980469 99.636719 512.75 102.800781 513.917969 105.976562 C 514.167969 106.671875 514.417969 107.363281 514.675781 108.078125 C 516.207031 110.105469 516.207031 110.105469 519.351562 111 C 525.210938 112.207031 531.179688 112.054688 537.136719 112.039062 L 540.703125 112.085938 L 544.113281 112.085938 L 547.210938 112.097656 C 549.800781 111.949219 549.800781 111.949219 551.519531 110.449219 C 553.203125 108.128906 553.875 105.710938 554.710938 102.976562 C 556.433594 97.417969 556.433594 97.417969 557.472656 96.378906 C 559.363281 89.671875 559.628906 83.144531 559.390625 76.21875 L 561.3125 76.21875 L 561.3125 79.097656 L 563.230469 79.097656 C 563.394531 76.839844 563.554688 74.578125 563.710938 72.320312 L 563.980469 68.503906 C 564.175781 64.984375 564.226562 61.503906 564.191406 57.980469 L 570.910156 58.9375 C 572.730469 55.628906 573.785156 52.230469 574.871094 48.621094 L 575.894531 45.214844 L 576.667969 42.621094 L 579.546875 42.621094 C 575.09375 54.667969 570.621094 66.707031 566.132812 78.738281 C 564.289062 83.691406 562.4375 88.640625 560.578125 93.589844 C 559.988281 95.167969 559.398438 96.746094 558.808594 98.328125 C 557.984375 100.539062 557.152344 102.75 556.320312 104.960938 L 555.578125 106.964844 C 554.546875 109.683594 553.792969 111.578125 551.710938 113.65625 C 549.074219 113.898438 546.535156 114.019531 543.890625 114.046875 L 541.539062 114.082031 C 539.894531 114.097656 538.25 114.113281 536.605469 114.121094 C 534.089844 114.136719 531.578125 114.195312 529.066406 114.257812 C 527.46875 114.269531 525.871094 114.28125 524.273438 114.289062 L 522 114.359375 C 519.863281 114.34375 519.863281 114.34375 516.199219 113.65625 C 512.386719 109.597656 510.933594 104.386719 509.222656 99.183594 C 508.640625 97.460938 508.054688 95.742188 507.46875 94.023438 L 506.558594 91.351562 C 505.085938 87.105469 503.515625 82.898438 501.9375 78.695312 L 501.003906 76.214844 C 500.070312 73.734375 499.136719 71.257812 498.199219 68.777344 L 496.285156 63.6875 C 494.152344 58.011719 494.152344 58.011719 492.003906 52.339844 C 491.480469 50.933594 490.976562 49.519531 490.496094 48.097656 C 489.851562 46.246094 489.113281 44.429688 488.363281 42.621094 C 485.894531 41.53125 485.894531 41.53125 483.5625 41.660156 Z M 483.5625 38.78125 " fill-opacity="1" fill-rule="nonzero"></path><path fill="#037db7" d="M 458.605469 21.5 C 461.484375 21.5 461.484375 21.5 464.367188 22.460938 L 460.527344 24.378906 L 460.527344 110.777344 C 463.53125 111.527344 465.460938 111.847656 468.445312 111.796875 L 472.042969 111.738281 L 472.042969 108.859375 L 473.964844 108.859375 L 473.964844 106.9375 L 478.765625 106.9375 L 478.765625 45.5 L 481.644531 44.539062 L 481.644531 114.617188 C 460.527344 114.617188 460.527344 114.617188 458.605469 113.65625 Z M 458.605469 21.5 " fill-opacity="1" fill-rule="nonzero"></path><path fill="#0a77a1" d="M 26.671875 22.460938 C 30.570312 24.410156 33.058594 26.707031 36.03125 29.78125 L 37.503906 31.28125 C 38.695312 32.496094 39.886719 33.714844 41.070312 34.941406 L 38.191406 35.898438 L 37.230469 33.019531 L 34.351562 32.058594 L 34.351562 30.140625 L 32.492188 29.242188 C 30.511719 28.21875 30.511719 28.21875 29.550781 27.261719 L 29.550781 107.898438 L 34.351562 106.9375 L 34.351562 98.296875 L 36.382812 97.734375 L 39.03125 96.976562 L 41.660156 96.238281 C 44.089844 95.554688 44.089844 95.554688 45.867188 93.5 C 46.484375 91.511719 46.484375 91.511719 46.828125 89.660156 L 50.667969 90.617188 C 46.070312 95.933594 41.371094 101.144531 36.625 106.332031 C 34.703125 108.472656 32.824219 110.65625 30.992188 112.878906 L 28.589844 115.578125 L 26.671875 115.578125 Z M 26.671875 22.460938 " fill-opacity="1" fill-rule="nonzero"></path><path fill="#037db7" d="M 444.207031 45.5 L 446.128906 46.460938 L 446.128906 113.65625 L 421.171875 113.65625 L 420.210938 112.699219 C 420.109375 111.003906 420.050781 109.308594 420.042969 107.613281 L 420.003906 104.320312 L 419.984375 100.734375 L 419.960938 97.082031 C 419.945312 94.523438 419.9375 91.964844 419.929688 89.40625 C 419.917969 86.125 419.886719 82.847656 419.847656 79.570312 C 419.816406 76.445312 419.8125 73.320312 419.804688 70.195312 L 419.753906 66.625 L 419.761719 63.3125 L 419.742188 60.398438 L 420.210938 57.980469 C 424.128906 54.300781 429.441406 52.347656 434.25 50.058594 L 437.0625 48.6875 L 439.746094 47.402344 L 442.203125 46.226562 Z M 439.410156 49.339844 L 439.410156 51.257812 L 433.652344 53.179688 L 433.652344 55.097656 L 428.851562 56.058594 L 428.851562 58.9375 L 423.09375 60.859375 C 421.851562 65.617188 421.976562 70.351562 421.972656 75.234375 L 421.960938 78.027344 C 421.957031 79.96875 421.953125 81.914062 421.953125 83.855469 C 421.953125 86.832031 421.933594 89.804688 421.917969 92.78125 C 421.914062 94.671875 421.910156 96.5625 421.910156 98.453125 L 421.890625 101.148438 L 421.898438 103.660156 L 421.894531 105.863281 C 422.164062 108.167969 422.90625 109.734375 424.050781 111.738281 C 427.390625 111.765625 430.730469 111.78125 434.070312 111.796875 L 436.960938 111.824219 L 439.707031 111.832031 L 442.25 111.847656 L 444.207031 111.738281 L 445.167969 110.777344 C 445.265625 109.074219 445.292969 107.371094 445.292969 105.664062 L 445.300781 102.351562 L 445.296875 98.742188 L 445.300781 95.046875 C 445.300781 92.460938 445.296875 89.875 445.292969 87.285156 C 445.289062 83.984375 445.292969 80.683594 445.296875 77.378906 C 445.300781 74.222656 445.296875 71.0625 445.296875 67.902344 L 445.300781 64.324219 C 445.289062 58.910156 445.191406 53.710938 444.210938 48.378906 C 441.402344 48.164062 441.402344 48.164062 439.410156 49.339844 " fill-opacity="1" fill-rule="nonzero"></path><path fill="#0a77a1" d="M 606.425781 22.460938 L 608.34375 23.421875 C 608.367188 35.042969 608.382812 46.667969 608.394531 58.292969 C 608.398438 63.6875 608.40625 69.085938 608.417969 74.480469 C 608.425781 79.683594 608.433594 84.890625 608.433594 90.09375 C 608.4375 92.082031 608.441406 94.074219 608.445312 96.0625 C 608.453125 98.839844 608.453125 101.617188 608.453125 104.394531 L 608.464844 106.914062 C 608.460938 108.84375 608.40625 110.769531 608.34375 112.699219 L 607.382812 113.65625 C 600.480469 114.832031 593.25 115.007812 586.265625 114.617188 L 585.308594 113.65625 C 585.207031 111.429688 585.15625 109.199219 585.15625 106.96875 L 585.140625 104.851562 C 585.132812 103.328125 585.121094 101.804688 585.117188 100.28125 C 585.105469 97.875 585.085938 95.464844 585.066406 93.058594 C 585.007812 86.210938 584.953125 79.359375 584.921875 72.511719 C 584.902344 68.328125 584.867188 64.144531 584.824219 59.960938 C 584.8125 58.363281 584.804688 56.765625 584.800781 55.167969 C 584.796875 52.933594 584.773438 50.703125 584.746094 48.472656 L 584.757812 46.457031 C 584.753906 44.425781 584.753906 44.425781 584.347656 41.660156 L 581.46875 39.738281 C 583.746094 39.140625 583.746094 39.140625 586.265625 38.78125 L 588.1875 40.699219 C 588.339844 43.015625 588.371094 45.214844 588.316406 47.527344 L 588.289062 49.65625 C 588.257812 51.984375 588.210938 54.308594 588.164062 56.636719 L 588.09375 61.472656 C 588.027344 65.714844 587.953125 69.960938 587.875 74.207031 C 587.796875 78.539062 587.730469 82.867188 587.664062 87.199219 C 587.527344 95.699219 587.382812 104.199219 587.226562 112.699219 L 605.464844 111.738281 C 606.707031 108.007812 606.550781 104.484375 606.535156 100.601562 L 606.535156 98.046875 C 606.535156 95.257812 606.523438 92.46875 606.519531 89.679688 L 606.515625 83.878906 C 606.511719 78.789062 606.503906 73.699219 606.492188 68.609375 C 606.480469 63.417969 606.476562 58.222656 606.472656 53.03125 C 606.460938 42.839844 606.445312 32.652344 606.425781 22.460938 " fill-opacity="1" fill-rule="nonzero"></path><path fill="#037db7" d="M 429.390625 19.460938 L 431.484375 19.464844 C 436.425781 19.507812 441.230469 19.839844 446.128906 20.539062 C 446.207031 23.039062 446.261719 25.539062 446.308594 28.039062 L 446.382812 30.1875 C 446.410156 32.257812 446.410156 32.257812 446.128906 35.898438 C 444.261719 38.257812 442.242188 39.433594 439.535156 40.671875 L 437.382812 41.667969 L 435.148438 42.679688 C 433.691406 43.351562 432.234375 44.023438 430.773438 44.691406 L 428.820312 45.582031 C 427.511719 46.191406 426.222656 46.839844 424.953125 47.53125 C 423.09375 48.378906 423.09375 48.378906 420.210938 48.378906 L 420.210938 20.539062 C 423.140625 19.078125 426.183594 19.441406 429.390625 19.460938 M 423.09375 21.5 L 423.09375 24.378906 L 431.730469 24.378906 L 430.769531 28.21875 L 430.769531 30.140625 L 427.472656 31.160156 C 425.601562 31.875 425.601562 31.875 424.050781 33.019531 C 422.9375 36.335938 422.9375 36.335938 423.09375 39.738281 L 424.050781 42.621094 L 433.652344 41.660156 L 433.652344 37.820312 L 435.925781 37.433594 L 438.871094 36.917969 L 441.804688 36.414062 L 444.207031 35.898438 L 445.167969 34.941406 C 445.289062 33.222656 445.335938 31.5 445.347656 29.78125 L 445.390625 26.9375 C 445.355469 24.160156 445.355469 24.160156 443.25 21.5 C 441.113281 21.101562 441.113281 21.101562 438.652344 21.21875 L 435.914062 21.246094 L 433.050781 21.320312 L 430.164062 21.359375 C 427.808594 21.394531 425.449219 21.441406 423.09375 21.5 M 200.40625 91.578125 C 201.792969 91.496094 203.179688 91.460938 204.566406 91.46875 L 207.246094 91.46875 L 210.15625 91.484375 L 213.125 91.488281 C 216.261719 91.492188 219.402344 91.507812 222.542969 91.519531 C 224.664062 91.523438 226.789062 91.527344 228.910156 91.53125 C 234.128906 91.542969 239.34375 91.558594 244.558594 91.578125 C 243.71875 97.097656 243.71875 97.097656 242.640625 99.257812 C 242.574219 100.578125 242.554688 101.898438 242.578125 103.21875 L 242.640625 106.9375 L 240.71875 105.019531 L 240.78125 102.617188 L 240.71875 100.21875 L 237.839844 98.296875 L 237.839844 95.417969 C 235.519531 95.257812 235.519531 95.257812 233.039062 95.417969 L 231.121094 97.339844 L 234 99.257812 L 232.082031 102.136719 C 229.082031 102.320312 229.082031 102.320312 226.320312 102.136719 L 226.320312 99.257812 L 210.964844 99.257812 L 210.964844 95.417969 L 202.324219 94.457031 L 202.324219 100.21875 L 200.40625 98.296875 C 199.746094 95.359375 199.746094 95.359375 199.445312 92.539062 Z M 200.40625 91.578125 " fill-opacity="1" fill-rule="nonzero"></path><path fill="#0a77a1" d="M 141.855469 22.460938 L 143.773438 22.460938 C 144.402344 33.097656 144.992188 43.726562 144.496094 54.378906 L 144.417969 56.539062 C 144.300781 58.535156 144.300781 58.535156 143.773438 61.820312 C 142.289062 63.722656 142.289062 63.722656 140.894531 64.699219 L 138.976562 63.738281 L 139.933594 61.820312 L 141.855469 61.820312 L 141.855469 30.140625 L 139.933594 29.179688 L 139.933594 32.058594 L 136.875 32.71875 C 134.070312 33.53125 132.941406 34.203125 130.578125 36.140625 C 128.292969 38.707031 128.292969 38.707031 126.976562 41.898438 L 125.535156 44.539062 C 122.957031 45.378906 122.957031 45.378906 120.738281 45.5 L 120.738281 47.417969 L 118.816406 47.417969 L 118.816406 52.21875 L 115.9375 53.179688 L 114.980469 55.097656 L 113.058594 55.097656 L 113.058594 57.019531 L 110.179688 57.980469 L 109.21875 60.859375 C 107.765625 62.589844 106.597656 63.621094 104.539062 64.578125 C 102.273438 65.652344 102.273438 65.652344 100.101562 68.058594 C 97.9375 70.222656 96.53125 71.085938 93.863281 72.378906 C 92.542969 73.617188 91.261719 74.898438 90.023438 76.21875 L 88.101562 75.257812 C 91.375 71.960938 94.652344 68.664062 97.933594 65.375 L 101.265625 62.019531 C 106.636719 56.609375 111.984375 51.265625 117.792969 46.320312 C 120.386719 43.992188 122.839844 41.53125 125.289062 39.054688 L 126.742188 37.585938 C 128.730469 35.570312 130.71875 33.546875 132.699219 31.523438 C 134.167969 30.03125 135.636719 28.542969 137.109375 27.054688 L 139.730469 24.378906 Z M 294.472656 20.539062 C 296.238281 20.445312 298.011719 20.414062 299.78125 20.414062 L 303.039062 20.410156 L 306.46875 20.421875 L 309.898438 20.410156 L 316.171875 20.417969 L 318.46875 20.539062 L 319.429688 21.5 C 319.511719 23.851562 319.539062 26.171875 319.523438 28.523438 L 319.515625 30.652344 C 319.511719 32.898438 319.5 35.148438 319.488281 37.398438 L 319.476562 41.964844 C 319.464844 45.703125 319.449219 49.441406 319.429688 53.179688 L 317.507812 53.179688 L 316.546875 22.460938 L 297.351562 22.460938 C 295.875 25.414062 296.257812 28.519531 296.265625 31.761719 L 296.261719 34.070312 C 296.257812 36.601562 296.257812 39.128906 296.261719 41.660156 L 296.261719 46.941406 C 296.261719 50.640625 296.261719 54.339844 296.265625 58.039062 C 296.269531 62.761719 296.269531 67.480469 296.261719 72.203125 C 296.257812 75.84375 296.257812 79.488281 296.261719 83.128906 C 296.261719 84.867188 296.261719 86.609375 296.261719 88.347656 C 296.25 96.84375 296.261719 105.214844 297.351562 113.65625 L 293.511719 112.699219 C 293.488281 100.824219 293.472656 88.949219 293.460938 77.074219 C 293.457031 71.5625 293.449219 66.050781 293.441406 60.535156 C 293.429688 55.222656 293.421875 49.90625 293.421875 44.589844 C 293.417969 42.558594 293.414062 40.523438 293.410156 38.492188 C 293.40625 35.652344 293.402344 32.816406 293.402344 29.980469 L 293.394531 27.40625 C 293.394531 25.4375 293.449219 23.46875 293.511719 21.5 Z M 294.472656 20.539062 " fill-opacity="1" fill-rule="nonzero"></path><path fill="#bf2732" d="M 142.816406 78.140625 L 144.734375 79.097656 L 143.773438 113.65625 L 108.257812 113.65625 L 111.140625 108.859375 L 113.058594 108.859375 L 113.058594 106.9375 C 114.332031 105.683594 114.332031 105.683594 116.179688 104.175781 C 121.847656 99.351562 127.019531 94.039062 132.257812 88.757812 L 135.34375 85.660156 C 137.835938 83.15625 140.324219 80.648438 142.816406 78.140625 M 138.976562 84.859375 C 135.773438 86.910156 133.90625 88.9375 132.136719 92.238281 L 130.335938 95.417969 L 127.457031 96.378906 L 127.457031 98.296875 L 123.617188 99.257812 L 122.65625 103.097656 L 120.976562 103.160156 L 118.816406 104.058594 C 117.253906 106.207031 116.175781 108.382812 114.980469 110.777344 L 114.980469 111.738281 L 141.855469 111.738281 L 141.855469 84.859375 Z M 138.976562 84.859375 " fill-opacity="1" fill-rule="nonzero"></path><path fill="#0a77a1" d="M 214.804688 39.738281 C 218.625 39.96875 221.257812 40.558594 224.640625 42.378906 C 226.042969 43.636719 226.042969 43.636719 227.28125 45.5 C 228.605469 49.605469 229.453125 53.730469 230.160156 57.980469 L 234.960938 57.980469 L 235.347656 60.363281 L 235.859375 63.5 L 236.367188 66.605469 C 236.773438 68.886719 237.238281 71.101562 237.839844 73.339844 L 240.71875 71.417969 L 241.679688 68.539062 L 244.558594 69.5 L 244.558594 72.378906 L 242.640625 72.378906 L 244.558594 77.179688 L 241.679688 76.21875 L 241.679688 81.980469 C 238.972656 78.683594 237.167969 75.054688 235.320312 71.238281 C 232.09375 64.667969 228.722656 58.183594 225.25 51.738281 C 223.804688 49.039062 222.492188 46.488281 221.523438 43.578125 C 219.746094 42.613281 219.746094 42.613281 217.683594 42.621094 C 215.488281 44.460938 214.226562 46.324219 213.007812 48.894531 L 212.039062 50.925781 L 211.019531 53.097656 L 209.949219 55.335938 C 208.824219 57.695312 207.699219 60.054688 206.585938 62.417969 C 205.109375 65.535156 203.628906 68.648438 202.140625 71.757812 C 201.804688 72.476562 201.464844 73.199219 201.117188 73.941406 C 200.285156 75.683594 199.390625 77.394531 198.484375 79.097656 L 196.566406 80.058594 L 198.484375 72.378906 L 200.40625 72.378906 L 201.246094 69.199219 C 202.324219 65.660156 202.324219 65.660156 204.246094 62.777344 C 204.621094 61.191406 204.941406 59.589844 205.203125 57.980469 L 207.125 57.980469 L 207.621094 55.382812 L 208.324219 51.980469 L 209 48.605469 C 210.003906 45.5 210.003906 45.5 211.96875 43.296875 L 213.84375 41.660156 Z M 458.605469 21.5 C 461.484375 21.5 461.484375 21.5 464.367188 22.460938 L 460.527344 24.378906 L 460.527344 110.777344 C 465.117188 111.925781 469.582031 112.066406 474.28125 112.234375 C 476.101562 112.324219 477.914062 112.503906 479.722656 112.699219 L 481.644531 114.617188 C 478.164062 114.644531 474.683594 114.664062 471.203125 114.679688 L 468.203125 114.703125 L 465.332031 114.710938 L 462.683594 114.726562 C 460.527344 114.617188 460.527344 114.617188 458.605469 113.65625 Z M 381.820312 20.539062 L 407.734375 20.539062 L 407.734375 106.9375 L 406.773438 106.9375 L 405.816406 21.5 L 384.699219 22.460938 L 383.738281 53.179688 L 381.820312 53.179688 Z M 562.269531 20.539062 C 564.359375 20.070312 564.359375 20.070312 566.8125 20.089844 L 569.597656 20.082031 L 572.597656 20.132812 L 575.675781 20.140625 C 577.824219 20.152344 579.972656 20.167969 582.121094 20.199219 C 585.421875 20.238281 588.722656 20.257812 592.023438 20.269531 C 594.105469 20.28125 596.1875 20.296875 598.273438 20.3125 L 601.285156 20.332031 L 604.050781 20.371094 L 606.5 20.398438 L 608.34375 20.539062 L 609.304688 21.5 C 609.394531 24.363281 609.425781 27.207031 609.414062 30.070312 L 609.414062 32.792969 C 609.414062 35.78125 609.40625 38.765625 609.398438 41.753906 L 609.394531 47.949219 C 609.390625 53.394531 609.382812 58.839844 609.371094 64.285156 C 609.359375 69.839844 609.355469 75.394531 609.351562 80.945312 C 609.339844 91.851562 609.324219 102.753906 609.304688 113.65625 L 607.382812 112.699219 L 607.390625 109.316406 C 607.410156 98.820312 607.425781 88.324219 607.433594 77.828125 C 607.4375 72.429688 607.445312 67.03125 607.457031 61.636719 C 607.464844 56.433594 607.472656 51.230469 607.476562 46.027344 C 607.476562 44.035156 607.480469 42.046875 607.484375 40.054688 C 607.492188 37.277344 607.496094 34.5 607.492188 31.726562 L 607.503906 29.203125 C 607.5 27.277344 607.449219 25.347656 607.382812 23.421875 L 606.425781 22.460938 C 605.039062 22.378906 603.652344 22.339844 602.261719 22.351562 L 599.585938 22.351562 L 596.671875 22.367188 L 593.707031 22.371094 C 590.566406 22.375 587.425781 22.386719 584.289062 22.398438 C 582.164062 22.40625 580.042969 22.410156 577.917969 22.414062 C 572.703125 22.425781 567.488281 22.441406 562.269531 22.460938 L 561.3125 25.339844 L 559.390625 24.378906 C 560.546875 22.488281 560.546875 22.488281 562.269531 20.539062 " fill-opacity="1" fill-rule="nonzero"></path><path fill="#656264" d="M 196.566406 135.738281 C 199.445312 135.429688 202.324219 135.429688 205.203125 135.738281 C 207.664062 137.175781 207.664062 137.175781 209.042969 138.617188 L 208.445312 141.855469 L 208.085938 145.335938 L 210.003906 147.257812 C 209.824219 150.136719 209.824219 150.136719 209.042969 153.015625 C 206.164062 154.9375 206.164062 154.9375 203.574219 155.125 L 200.707031 155.058594 L 197.816406 155.003906 L 195.605469 154.9375 C 195.578125 151.917969 195.558594 148.898438 195.546875 145.878906 L 195.523438 143.265625 L 195.511719 140.78125 L 195.496094 138.480469 L 195.605469 136.699219 Z M 199.445312 137.65625 L 197.527344 138.617188 C 197.484375 140.21875 197.484375 141.816406 197.527344 143.417969 L 198.484375 144.378906 C 201.324219 144.617188 201.324219 144.617188 204.246094 144.378906 L 206.164062 142.457031 C 205.859375 140.433594 205.859375 140.433594 205.203125 138.617188 C 203.296875 138.242188 201.375 137.925781 199.445312 137.65625 M 198.484375 146.296875 L 197.527344 147.257812 C 197.367188 149.65625 197.367188 149.65625 197.527344 152.058594 L 198.484375 153.015625 C 201.804688 153.257812 201.804688 153.257812 205.203125 153.015625 L 207.125 151.097656 C 206.886719 149.105469 206.886719 149.105469 206.164062 147.257812 L 205.203125 146.296875 C 201.84375 146.136719 201.84375 146.136719 198.484375 146.296875 M 386.617188 135.738281 C 390.164062 135.378906 393.628906 135.367188 397.175781 135.738281 L 399.816406 137.359375 L 401.015625 139.578125 C 400.851562 142.855469 399.71875 145.371094 398.136719 148.21875 L 399.574219 149.957031 L 401.015625 152.058594 L 401.015625 154.9375 C 399.277344 154.277344 399.277344 154.277344 397.175781 153.015625 L 395.917969 150.558594 L 394.296875 148.21875 C 390.839844 147.355469 390.839844 147.355469 387.578125 147.257812 L 388.539062 153.976562 L 385.65625 154.9375 C 385.632812 151.917969 385.609375 148.898438 385.597656 145.878906 L 385.574219 143.265625 L 385.5625 140.78125 L 385.546875 138.480469 L 385.65625 136.699219 Z M 389.496094 137.65625 C 388.4375 139.953125 388.4375 139.953125 387.578125 142.457031 L 388.539062 144.378906 C 392.386719 144.550781 392.386719 144.550781 396.214844 144.378906 L 398.136719 142.457031 C 397.976562 140.457031 397.976562 140.457031 397.175781 138.617188 C 394.574219 137.316406 392.367188 137.59375 389.496094 137.65625 M 317.507812 135.738281 C 321.167969 135.515625 324.445312 135.355469 328.066406 135.738281 C 331.125 137.539062 331.125 137.539062 332.867188 140.539062 C 333.519531 143.882812 333.519531 146.789062 332.867188 150.136719 C 331.125 153.136719 331.125 153.136719 328.066406 154.9375 C 324.445312 155.316406 321.167969 155.15625 317.507812 154.9375 Z M 321.347656 137.65625 L 319.429688 139.578125 C 319.15625 142.292969 319.15625 142.292969 319.25 145.335938 L 319.265625 148.457031 C 319.253906 151.058594 319.253906 151.058594 320.386719 153.015625 C 323.628906 153.257812 323.628906 153.257812 327.105469 153.015625 C 328.847656 151.9375 328.847656 151.9375 329.984375 150.136719 C 330.40625 147.792969 330.40625 147.792969 330.285156 145.277344 L 330.273438 142.722656 L 329.984375 140.539062 L 328.066406 138.617188 C 324.730469 137.820312 324.730469 137.820312 321.347656 137.65625 " fill-opacity="1" fill-rule="nonzero"></path><path fill="#0a77a1" d="M 322.308594 60.859375 L 326.148438 60.859375 L 326.148438 62.777344 L 328.066406 62.777344 L 329.984375 76.21875 C 336.015625 76.242188 342.042969 76.261719 348.070312 76.273438 C 350.121094 76.277344 352.167969 76.285156 354.21875 76.289062 C 357.171875 76.304688 360.121094 76.308594 363.074219 76.3125 L 365.832031 76.328125 C 370.628906 76.328125 375.171875 76.082031 379.898438 75.257812 L 380.859375 77.179688 C 376.203125 77.933594 371.738281 78.261719 367.027344 78.265625 L 365.019531 78.269531 C 363.628906 78.269531 362.234375 78.265625 360.835938 78.261719 C 358.75 78.257812 356.664062 78.261719 354.578125 78.269531 C 350.539062 78.265625 346.5 78.222656 342.464844 78.140625 L 340.488281 78.117188 C 338.628906 78.085938 336.769531 78.019531 334.910156 77.953125 L 331.675781 77.855469 L 329.027344 77.179688 C 326.476562 73.859375 325.3125 70.285156 324.046875 66.320312 L 323.046875 63.210938 Z M 322.308594 60.859375 " fill-opacity="1" fill-rule="nonzero"></path><path fill="#656264" d="M 423.09375 135.738281 C 428.3125 135.40625 428.3125 135.40625 430.769531 135.738281 L 433.652344 137.65625 L 433.652344 141.496094 L 430.769531 140.539062 L 430.769531 138.617188 L 425.011719 138.617188 L 423.09375 142.457031 L 424.878906 142.777344 L 427.230469 143.238281 L 429.558594 143.675781 C 431.730469 144.378906 431.730469 144.378906 433.429688 145.738281 C 434.609375 147.257812 434.609375 147.257812 434.96875 149.65625 C 434.609375 152.058594 434.609375 152.058594 433.417969 153.625 C 431.730469 154.9375 431.730469 154.9375 429.660156 155.320312 L 427.410156 155.296875 L 425.160156 155.320312 C 423.09375 154.9375 423.09375 154.9375 421.382812 153.65625 L 420.210938 152.058594 L 420.210938 149.175781 L 422.132812 149.175781 L 423.332031 150.617188 L 425.011719 152.058594 C 428.011719 152.296875 428.011719 152.296875 430.769531 152.058594 L 431.730469 149.175781 L 429.699219 148.195312 L 427.050781 146.898438 L 424.417969 145.613281 C 422.132812 144.378906 422.132812 144.378906 420.210938 142.457031 C 420.453125 140.058594 420.453125 140.058594 421.171875 137.65625 Z M 423.09375 135.738281 " fill-opacity="1" fill-rule="nonzero"></path><path fill="#0a77a1" d="M 444.207031 45.5 L 446.128906 46.460938 L 446.128906 113.65625 L 443.25 112.699219 L 444.207031 110.777344 C 444.296875 108.796875 444.320312 106.8125 444.320312 104.832031 L 444.320312 101.046875 L 444.304688 96.941406 L 444.296875 92.753906 C 444.292969 89.074219 444.285156 85.398438 444.273438 81.71875 C 444.265625 77.96875 444.261719 74.21875 444.257812 70.464844 C 444.246094 63.105469 444.230469 55.742188 444.207031 48.378906 L 439.410156 49.339844 L 439.410156 51.257812 L 437.488281 53.179688 L 433.652344 53.179688 L 433.652344 55.097656 L 426.929688 56.058594 L 426.929688 54.140625 C 429.765625 52.667969 432.605469 51.210938 435.449219 49.761719 L 437.898438 48.484375 L 440.242188 47.296875 L 442.40625 46.183594 Z M 444.207031 45.5 " fill-opacity="1" fill-rule="nonzero"></path><path fill="#656264" d="M 353.023438 135.738281 C 355.121094 135.671875 357.222656 135.652344 359.320312 135.679688 L 362.804688 135.703125 L 365.5 135.738281 L 365.5 137.65625 L 355.902344 138.617188 L 355.902344 143.417969 L 365.5 144.378906 L 365.5 146.296875 L 355.902344 147.257812 L 354.941406 153.015625 L 365.5 153.015625 L 365.5 154.9375 C 363.441406 154.960938 361.378906 154.980469 359.320312 154.996094 L 355.84375 155.03125 L 353.023438 154.9375 L 352.0625 153.976562 C 351.972656 152.699219 351.929688 151.417969 351.933594 150.136719 L 351.929688 147.796875 L 351.941406 145.335938 L 351.929688 142.878906 L 351.933594 140.539062 L 351.9375 138.378906 L 352.0625 136.699219 Z M 230.160156 135.738281 L 232.082031 137.65625 C 232.234375 140.019531 232.234375 140.019531 232.140625 142.816406 C 232.039062 146.113281 232.074219 148.890625 233.039062 152.058594 L 239.761719 152.058594 C 240.871094 148.730469 241.035156 145.777344 241.261719 142.277344 L 241.503906 138.574219 L 241.679688 135.738281 L 243.597656 135.738281 C 245.070312 138.683594 244.746094 141.5625 244.710938 144.8125 C 244.523438 147.816406 243.875 150.273438 242.640625 153.015625 L 240.71875 154.9375 C 238.742188 155.257812 238.742188 155.257812 236.460938 155.296875 L 234.183594 155.378906 C 232.082031 154.9375 232.082031 154.9375 230.382812 153.457031 C 228.765625 150.222656 228.855469 147.246094 228.960938 143.71875 L 228.976562 141.714844 C 229.003906 140.039062 229.097656 138.367188 229.203125 136.699219 Z M 230.160156 135.738281 " fill-opacity="1" fill-rule="nonzero"></path><path fill="#0a77a1" d="M 200.40625 91.578125 C 201.792969 91.496094 203.179688 91.460938 204.566406 91.46875 L 207.246094 91.46875 L 210.15625 91.484375 L 213.125 91.488281 C 216.261719 91.492188 219.402344 91.507812 222.542969 91.519531 C 224.664062 91.523438 226.789062 91.527344 228.910156 91.53125 C 234.128906 91.542969 239.34375 91.558594 244.558594 91.578125 L 242.640625 94.457031 C 240.914062 94.804688 240.914062 94.804688 238.808594 94.785156 L 236.421875 94.785156 L 233.84375 94.738281 L 231.203125 94.726562 C 228.417969 94.710938 225.628906 94.675781 222.84375 94.640625 C 220.957031 94.625 219.066406 94.609375 217.179688 94.597656 C 212.550781 94.566406 207.917969 94.519531 203.285156 94.457031 L 202.324219 100.21875 L 200.40625 98.296875 C 199.746094 95.359375 199.746094 95.359375 199.445312 92.539062 Z M 200.40625 91.578125 " fill-opacity="1" fill-rule="nonzero"></path><path fill="#bf2732" d="M 142.816406 78.140625 L 144.734375 79.097656 L 143.773438 113.65625 L 108.257812 113.65625 L 111.140625 108.859375 L 113.058594 108.859375 L 114.019531 111.738281 L 141.855469 111.738281 L 142.816406 81.980469 L 139.933594 81.019531 Z M 401.015625 -42.816406 L 402.933594 -40.898438 C 398.136719 -36.097656 398.136719 -36.097656 396.515625 -34.597656 C 395.050781 -32.992188 394.222656 -31.351562 393.335938 -29.378906 L 391.417969 -29.378906 L 391.417969 -27.457031 L 389.257812 -26.796875 C 386.105469 -25.292969 384.894531 -23.46875 382.777344 -20.738281 L 380.679688 -19.71875 L 378.9375 -18.820312 C 378.167969 -16.851562 378.167969 -16.851562 377.980469 -14.980469 L 375.097656 -14.980469 C 375.339844 -16.660156 375.339844 -16.660156 376.058594 -18.820312 C 377.917969 -20.980469 377.917969 -20.980469 379.898438 -22.660156 L 381.820312 -22.660156 L 381.820312 -24.578125 C 383.09375 -25.832031 383.09375 -25.832031 384.9375 -27.339844 C 390.628906 -32.160156 395.785156 -37.507812 401.015625 -42.816406 " fill-opacity="1" fill-rule="nonzero"></path><path fill="#0a77a1" d="M 134.175781 66.621094 L 137.054688 67.578125 C 129.003906 74.96875 120.632812 81.878906 112.097656 88.699219 L 111.140625 86.777344 L 114.019531 84.859375 C 115.03125 83.289062 115.992188 81.691406 116.898438 80.058594 L 114.980469 78.140625 L 120.738281 76.21875 L 121.699219 78.140625 L 122.539062 74.960938 C 123.296875 73.105469 123.296875 73.105469 124.578125 71.417969 C 127.679688 69.96875 130.824219 69.199219 134.175781 68.539062 Z M 429.390625 19.460938 L 431.484375 19.464844 C 436.425781 19.507812 441.230469 19.839844 446.128906 20.539062 C 446.207031 23.039062 446.261719 25.539062 446.308594 28.039062 L 446.382812 30.1875 C 446.410156 32.257812 446.410156 32.257812 446.128906 35.898438 C 444.75 37.949219 443.660156 38.566406 441.5 39.691406 L 439.710938 40.398438 L 436.53125 41.660156 L 436.53125 39.738281 C 437.796875 39.089844 439.074219 38.472656 440.371094 37.878906 C 442.550781 36.71875 442.550781 36.71875 444.207031 34.941406 C 444.964844 31.339844 444.773438 28.003906 444.207031 24.378906 L 443.25 22.460938 C 439.929688 22.433594 436.609375 22.414062 433.289062 22.402344 L 430.425781 22.375 L 427.6875 22.367188 L 425.160156 22.351562 C 423.042969 22.324219 423.042969 22.324219 421.171875 23.421875 L 420.210938 20.539062 C 423.140625 19.078125 426.183594 19.441406 429.390625 19.460938 M 381.820312 79.097656 L 383.738281 79.097656 L 384.699219 114.617188 L 381.820312 113.65625 Z M 381.820312 79.097656 " fill-opacity="1" fill-rule="nonzero"></path><path fill="#656264" d="M 286.792969 135.738281 L 289.671875 136.699219 L 289.671875 153.015625 L 298.3125 153.015625 L 298.3125 154.9375 C 296.570312 154.960938 294.832031 154.980469 293.09375 154.996094 L 290.15625 155.03125 L 287.753906 154.9375 L 286.792969 153.976562 C 286.714844 152.617188 286.683594 151.253906 286.699219 149.894531 L 286.707031 147.410156 L 286.734375 144.796875 L 286.746094 142.175781 C 286.757812 140.027344 286.773438 137.882812 286.792969 135.738281 M 317.507812 135.738281 C 325.476562 135.457031 325.476562 135.457031 328.066406 135.738281 L 330.945312 138.617188 L 321.347656 138.617188 C 320.078125 143.378906 320.300781 148.132812 320.386719 153.015625 L 317.507812 153.015625 Z M 317.507812 135.738281 " fill-opacity="1" fill-rule="nonzero"></path><path fill="#0a77a1" d="M 66.984375 97.339844 L 71.785156 98.296875 L 71.785156 100.21875 L 74.664062 99.257812 L 75.371094 100.871094 L 76.34375 102.976562 L 77.289062 105.070312 C 78.398438 107.054688 78.398438 107.054688 80.40625 108.164062 C 82.390625 109.039062 82.390625 109.039062 84.804688 108.558594 C 86.554688 108.058594 88.296875 107.519531 90.023438 106.9375 L 90.023438 105.019531 L 92.902344 105.976562 C 91.714844 107.132812 90.515625 108.269531 89.300781 109.398438 L 87.277344 111.320312 L 85.222656 112.699219 C 83.410156 112.742188 83.410156 112.742188 81.382812 111.738281 C 79.378906 110.113281 77.4375 108.414062 75.566406 106.636719 L 74.027344 105.222656 C 71.390625 102.765625 69.027344 100.3125 66.984375 97.339844 M 483.5625 38.78125 C 486.261719 38.539062 486.261719 38.539062 489.320312 38.78125 C 491.378906 40.878906 492.15625 42.453125 492.902344 45.304688 L 493.339844 48.140625 C 493.496094 49.085938 493.644531 50.03125 493.800781 51.003906 L 494.121094 53.179688 L 496.042969 53.179688 C 496.390625 54.535156 496.730469 55.898438 497.0625 57.257812 L 497.632812 59.554688 C 497.976562 61.917969 497.738281 63.410156 497 65.660156 L 492.78125 54.410156 L 492.007812 52.371094 C 491.484375 50.957031 490.984375 49.535156 490.5 48.109375 C 489.855469 46.253906 489.117188 44.433594 488.363281 42.621094 C 485.894531 41.53125 485.894531 41.53125 483.5625 41.660156 Z M 483.5625 38.78125 " fill-opacity="1" fill-rule="nonzero"></path><path fill="#037db7" d="M 46.828125 89.660156 L 50.667969 90.617188 C 46.3125 95.863281 41.789062 100.960938 36.269531 105.019531 L 34.351562 105.019531 L 34.351562 98.296875 L 36.382812 97.734375 L 39.03125 96.976562 L 41.660156 96.238281 C 44.089844 95.554688 44.089844 95.554688 45.867188 93.5 C 46.484375 91.511719 46.484375 91.511719 46.828125 89.660156 " fill-opacity="1" fill-rule="nonzero"></path><path fill="#0a77a1" d="M 420.210938 21.5 L 423.09375 22.460938 L 422.132812 45.5 L 426.929688 45.5 L 425.972656 47.417969 L 420.210938 48.378906 Z M 44.910156 40.699219 C 48.988281 43.203125 51.5625 45.613281 54.507812 49.339844 C 56.484375 51.097656 58.5 52.796875 60.546875 54.476562 C 62.1875 56.058594 62.1875 56.058594 63.148438 58.9375 L 65.066406 58.9375 L 65.066406 60.859375 L 62.1875 60.859375 L 61.226562 57.019531 L 57.386719 56.058594 L 57.386719 53.179688 L 55.648438 52.398438 C 53.546875 51.257812 53.546875 51.257812 52.109375 49.761719 C 50.71875 48.226562 50.71875 48.226562 48.570312 47.71875 L 46.828125 47.417969 Z M 318.46875 94.457031 L 319.429688 94.457031 C 319.640625 97.277344 319.839844 100.097656 320.027344 102.917969 L 320.214844 105.34375 L 320.367188 107.675781 L 320.515625 109.824219 C 320.386719 111.738281 320.386719 111.738281 318.46875 114.617188 C 316.601562 114.898438 316.601562 114.898438 314.507812 114.796875 L 310.789062 114.617188 L 311.75 112.699219 L 313.625 112.136719 L 315.589844 110.777344 C 316.523438 108.082031 316.878906 105.320312 317.269531 102.5 L 317.632812 100.164062 C 317.925781 98.265625 318.199219 96.363281 318.46875 94.457031 " fill-opacity="1" fill-rule="nonzero"></path><path fill="#656264" d="M 386.617188 135.738281 C 388.394531 135.667969 390.175781 135.65625 391.957031 135.679688 L 394.898438 135.703125 L 397.175781 135.738281 L 397.175781 136.699219 L 387.578125 136.699219 L 387.789062 138.769531 C 388.28125 143.867188 388.652344 148.859375 388.539062 153.976562 L 385.65625 154.9375 C 385.632812 151.917969 385.609375 148.898438 385.597656 145.878906 L 385.574219 143.265625 L 385.5625 140.78125 L 385.546875 138.480469 L 385.65625 136.699219 Z M 386.617188 135.738281 " fill-opacity="1" fill-rule="nonzero"></path><path fill="#0a77a1" d="M 195.605469 82.9375 C 194.011719 88.28125 191.660156 93.171875 189.246094 98.179688 L 188.027344 100.734375 C 187.035156 102.804688 186.042969 104.871094 185.046875 106.9375 C 184.527344 105.171875 184.527344 105.171875 184.089844 103.097656 C 184.765625 100.65625 184.765625 100.65625 185.828125 98.117188 L 186.867188 95.558594 L 187.925781 93.5 L 189.847656 92.539062 C 190.4375 90.535156 190.4375 90.535156 190.808594 88.21875 C 191.226562 85.847656 191.226562 85.847656 191.765625 83.898438 C 193.6875 82.9375 193.6875 82.9375 195.605469 82.9375 " fill-opacity="1" fill-rule="nonzero"></path><path fill="#656264" d="M 202.324219 136.699219 C 204.605469 136.578125 204.605469 136.578125 207.125 136.699219 L 209.042969 138.617188 L 208.085938 145.335938 L 210.003906 147.257812 C 209.644531 150.257812 209.644531 150.257812 209.042969 153.015625 L 205.203125 152.058594 L 205.746094 150.257812 L 206.164062 148.21875 L 205.203125 146.296875 L 206.164062 144.378906 L 204.246094 143.417969 L 204.90625 141.679688 L 205.203125 139.578125 C 203.90625 137.875 203.90625 137.875 202.324219 136.699219 " fill-opacity="1" fill-rule="nonzero"></path><path fill="#0a77a1" d="M 60.265625 85.820312 L 60.265625 87.738281 L 62.1875 87.738281 C 63.589844 90.28125 64.105469 91.476562 64.105469 94.457031 L 66.984375 94.457031 L 66.984375 97.339844 C 62.972656 95.542969 59.957031 92.847656 56.636719 90.007812 L 54.507812 88.699219 C 52.363281 88.878906 52.363281 88.878906 50.667969 89.660156 L 51.628906 86.777344 C 54.5625 86.257812 57.28125 85.820312 60.265625 85.820312 " fill-opacity="1" fill-rule="nonzero"></path><path fill="#656264" d="M 264.714844 135.738281 L 266.636719 136.699219 L 266.636719 154.9375 L 264.714844 154.9375 C 263.519531 151.347656 263.617188 147.996094 263.636719 144.257812 L 263.625 142.101562 C 263.628906 140.300781 263.6875 138.496094 263.757812 136.699219 Z M 264.714844 135.738281 " fill-opacity="1" fill-rule="nonzero"></path><path fill="#0a77a1" d="M 39.148438 101.179688 L 39.148438 104.058594 C 37.511719 106.109375 35.792969 108.089844 33.992188 110 L 32.511719 111.625 C 31.25 112.984375 29.925781 114.285156 28.589844 115.578125 L 26.671875 115.578125 L 26.671875 108.859375 L 34.351562 106.9375 L 34.351562 105.019531 C 35.910156 103.6875 37.511719 102.410156 39.148438 101.179688 " fill-opacity="1" fill-rule="nonzero"></path><path fill="#037db7" d="M 51.628906 53.179688 L 54.507812 53.179688 L 54.507812 57.019531 L 59.308594 58.9375 L 59.308594 60.859375 L 61.226562 60.859375 L 61.226562 63.738281 L 55.46875 62.777344 L 54.507812 59.898438 L 49.707031 60.859375 Z M 51.628906 53.179688 " fill-opacity="1" fill-rule="nonzero"></path><path fill="#0a77a1" d="M 208.085938 53.179688 L 210.003906 53.179688 C 208.089844 59.710938 205.390625 65.511719 202.144531 71.480469 L 200.796875 73.996094 C 199.710938 76.019531 198.621094 78.039062 197.527344 80.058594 L 196.566406 78.140625 C 197.148438 76.199219 197.785156 74.277344 198.484375 72.378906 L 200.40625 72.378906 L 201.246094 69.199219 C 202.324219 65.660156 202.324219 65.660156 204.246094 62.777344 C 204.621094 61.191406 204.941406 59.589844 205.203125 57.980469 L 207.125 57.980469 Z M 208.085938 53.179688 " fill-opacity="1" fill-rule="nonzero"></path><path fill="#0a77a1" d="M 561.3125 24.378906 L 562.269531 26.300781 L 560.351562 26.300781 L 560.066406 28.0625 C 558.582031 36.386719 555.636719 43.800781 551.710938 51.257812 L 550.753906 49.339844 C 551.6875 45.425781 553.070312 41.632812 554.351562 37.820312 L 555.402344 34.566406 L 556.4375 31.460938 L 557.382812 28.601562 L 558.433594 26.300781 Z M 244.558594 92.539062 L 242.640625 94.457031 C 239.8125 94.558594 237.082031 94.542969 234.261719 94.4375 L 231.753906 94.363281 C 229.101562 94.285156 226.453125 94.191406 223.800781 94.097656 C 222.007812 94.042969 220.210938 93.988281 218.417969 93.933594 C 214.011719 93.796875 209.609375 93.652344 205.203125 93.5 L 205.203125 92.539062 C 210.347656 92.378906 215.488281 92.222656 220.628906 92.074219 C 222.378906 92.023438 224.128906 91.972656 225.878906 91.917969 C 228.390625 91.839844 230.90625 91.765625 233.421875 91.695312 L 235.792969 91.617188 C 238.992188 91.53125 241.5 91.519531 244.558594 92.539062 M 102.5 60.859375 L 103.460938 64.699219 C 100.644531 68.097656 97.621094 70.160156 93.863281 72.378906 C 92.542969 73.617188 91.261719 74.898438 90.023438 76.21875 L 88.101562 75.257812 Z M 436.53125 35.898438 C 438.769531 35.820312 441.007812 35.820312 443.25 35.898438 C 441.679688 37.21875 440.082031 38.5 438.449219 39.738281 L 436.53125 39.738281 L 435.570312 42.621094 C 433.585938 43.53125 433.585938 43.53125 431.191406 44.238281 L 428.789062 44.96875 L 426.929688 45.5 L 428.851562 41.660156 L 433.652344 41.660156 L 433.652344 37.820312 Z M 509.480469 27.261719 C 512.789062 30.570312 513.550781 35.285156 514.9375 39.679688 L 515.90625 42.632812 L 516.808594 45.464844 L 517.640625 48.066406 L 518.117188 50.300781 L 517.15625 53.179688 L 516.199219 48.378906 L 514.277344 48.378906 C 513.472656 45.582031 512.671875 42.78125 511.878906 39.980469 L 511.183594 37.578125 L 510.527344 35.253906 C 510.328125 34.550781 510.125 33.847656 509.917969 33.121094 C 509.480469 31.101562 509.480469 31.101562 509.480469 27.261719 " fill-opacity="1" fill-rule="nonzero"></path><path fill="#0a77a1" d="M 26.671875 22.460938 C 30.582031 24.003906 33.164062 26.816406 36.03125 29.78125 L 37.503906 31.28125 C 38.695312 32.496094 39.886719 33.714844 41.070312 34.941406 L 38.191406 35.898438 L 37.230469 33.019531 L 34.351562 32.058594 L 34.351562 30.140625 C 32.113281 28.980469 30.035156 28.0625 27.632812 27.261719 Z M 26.671875 22.460938 " fill-opacity="1" fill-rule="nonzero"></path><path fill="#656264" d="M 230.160156 135.738281 L 232.082031 137.65625 C 232.21875 140.132812 232.261719 142.503906 232.199219 144.976562 L 232.175781 147.03125 C 232.152344 148.707031 232.121094 150.382812 232.082031 152.058594 C 230.65625 151.015625 230.65625 151.015625 229.203125 149.175781 C 228.886719 146.199219 228.886719 146.199219 228.960938 142.816406 C 228.976562 141.695312 228.992188 140.574219 229.007812 139.417969 L 229.203125 136.699219 Z M 230.160156 135.738281 " fill-opacity="1" fill-rule="nonzero"></path><path fill="#0a77a1" d="M 72.746094 68.539062 C 73.808594 69.4375 74.867188 70.335938 75.925781 71.238281 L 77.714844 72.757812 C 79.464844 74.300781 79.464844 74.300781 80.933594 75.949219 L 82.34375 77.179688 C 85.367188 76.957031 85.367188 76.957031 88.101562 76.21875 L 88.101562 79.097656 C 83.054688 80.246094 83.054688 80.246094 80.304688 79.519531 C 77.757812 77.566406 76.378906 75.0625 74.664062 72.378906 L 72.746094 71.417969 Z M 72.746094 68.539062 " fill-opacity="1" fill-rule="nonzero"></path><path fill="#656264" d="M 317.507812 135.738281 C 319.207031 135.660156 320.90625 135.601562 322.609375 135.558594 L 325.476562 135.457031 L 328.066406 135.738281 L 330.945312 138.617188 L 317.507812 138.617188 Z M 229.203125 149.175781 L 231.121094 150.136719 L 231.121094 152.058594 L 241.679688 152.058594 L 241.679688 150.136719 L 243.597656 150.136719 C 241.800781 153.855469 241.800781 153.855469 240.71875 154.9375 C 237.808594 155.292969 234.988281 155.332031 232.082031 154.9375 C 230.101562 153.136719 230.101562 153.136719 229.203125 151.097656 Z M 229.203125 149.175781 " fill-opacity="1" fill-rule="nonzero"></path><path fill="#0a77a1" d="M 381.820312 20.539062 L 407.734375 20.539062 L 405.816406 22.460938 C 403.6875 22.632812 403.6875 22.632812 401.074219 22.546875 L 398.234375 22.488281 C 396.25 22.429688 394.265625 22.367188 392.277344 22.300781 L 389.4375 22.246094 L 386.824219 22.164062 L 384.699219 22.460938 L 382.777344 25.339844 Z M 294.472656 20.539062 L 318.46875 20.539062 L 318.46875 23.421875 L 316.546875 22.460938 C 314.875 22.382812 313.203125 22.351562 311.53125 22.367188 L 308.53125 22.375 L 305.390625 22.402344 L 302.226562 22.414062 C 299.640625 22.425781 297.054688 22.441406 294.472656 22.460938 Z M 156.253906 103.097656 L 157.210938 103.097656 L 156.253906 113.65625 L 152.414062 113.65625 C 152.996094 109.695312 154.371094 106.621094 156.253906 103.097656 M 202.324219 101.179688 L 204.246094 101.179688 C 205.9375 104.144531 206.164062 105.242188 206.164062 108.859375 L 208.085938 108.859375 L 209.042969 113.65625 C 207.230469 113.035156 207.230469 113.035156 205.203125 111.738281 C 204.199219 109.238281 204.199219 109.238281 203.523438 106.339844 L 202.820312 103.417969 Z M 202.324219 101.179688 " fill-opacity="1" fill-rule="nonzero"></path><path fill="#0a77a1" d="M 46.828125 89.660156 L 50.667969 90.617188 C 49.632812 91.84375 48.59375 93.0625 47.550781 94.277344 L 45.792969 96.335938 C 44.023438 98.21875 42.222656 99.695312 40.109375 101.179688 C 41.148438 98.753906 42.097656 97.273438 44.011719 95.417969 C 45.992188 93.648438 45.992188 93.648438 46.589844 91.339844 Z M 46.828125 89.660156 " fill-opacity="1" fill-rule="nonzero"></path><path fill="#037db7" d="M 267.59375 85.820312 C 270.542969 87.890625 272.328125 89.546875 274.195312 92.660156 L 275.273438 95.417969 L 274.316406 97.339844 L 272.574219 95.117188 C 270.652344 92.617188 270.652344 92.617188 268.796875 91.039062 L 267.59375 89.660156 Z M 267.59375 85.820312 " fill-opacity="1" fill-rule="nonzero"></path><path fill="#bf2732" d="M 138.976562 81.980469 L 142.816406 81.980469 L 141.855469 83.898438 L 139.933594 82.9375 L 139.214844 84.738281 L 138.015625 86.777344 C 136.742188 87.433594 135.464844 88.074219 134.175781 88.699219 L 133.214844 91.578125 L 132.257812 88.699219 C 133.285156 87.570312 134.324219 86.449219 135.375 85.339844 L 137.128906 83.449219 Z M 138.976562 81.980469 " fill-opacity="1" fill-rule="nonzero"></path><path fill="#037db7" d="M 323.925781 56.480469 L 326.148438 57.019531 L 325.1875 60.859375 L 318.46875 59.898438 L 318.46875 57.019531 C 321.347656 56.058594 321.347656 56.058594 323.925781 56.480469 " fill-opacity="1" fill-rule="nonzero"></path><path fill="#0a77a1" d="M 316.546875 104.058594 L 317.507812 104.058594 L 318.46875 114.617188 L 310.789062 114.617188 L 311.75 112.699219 L 313.667969 112.039062 L 315.589844 110.777344 C 316.375 107.359375 316.375 107.359375 316.546875 104.058594 " fill-opacity="1" fill-rule="nonzero"></path><path fill="#037db7" d="M 297.351562 21.5 L 316.546875 21.5 L 317.507812 24.378906 L 314.628906 24.378906 L 314.628906 22.460938 L 297.351562 22.460938 Z M 297.351562 21.5 " fill-opacity="1" fill-rule="nonzero"></path><path fill="#656264" d="M 207.125 145.335938 L 210.003906 147.257812 L 209.042969 153.015625 L 205.203125 152.058594 L 205.746094 150.257812 L 206.164062 148.21875 L 205.203125 146.296875 Z M 207.125 145.335938 " fill-opacity="1" fill-rule="nonzero"></path><path fill="#0a77a1" d="M 66.984375 97.339844 L 71.785156 98.296875 L 71.785156 100.21875 L 74.664062 99.257812 L 75.625 104.058594 C 73.464844 103.398438 73.464844 103.398438 70.824219 102.136719 C 68.605469 99.617188 68.605469 99.617188 66.984375 97.339844 " fill-opacity="1" fill-rule="nonzero"></path><path fill="#656264" d="M 396.214844 143.417969 L 398.136719 145.335938 L 395.257812 147.257812 C 393.019531 147.335938 390.777344 147.339844 388.539062 147.257812 L 388.539062 144.378906 C 394.347656 143.4375 394.347656 143.4375 396.214844 143.417969 " fill-opacity="1" fill-rule="nonzero"></path><path fill="#0a77a1" d="M 129.375 71.417969 L 131.296875 72.378906 L 121.699219 81.019531 C 121.699219 78.140625 121.699219 78.140625 122.65625 75.257812 C 124.238281 74.570312 125.835938 73.929688 127.457031 73.339844 Z M 322.308594 60.859375 L 326.148438 60.859375 L 326.148438 62.777344 L 328.066406 62.777344 L 327.105469 66.621094 L 326.148438 65.660156 L 325.1875 69.5 Z M 421.171875 105.019531 C 423.09375 107.898438 423.09375 107.898438 424.050781 110.777344 L 425.972656 111.738281 L 425.972656 113.65625 L 421.171875 113.65625 Z M 100.582031 96.378906 L 102.5 97.339844 C 101.265625 98.625 100.027344 99.902344 98.78125 101.179688 L 96.6875 103.339844 L 94.820312 105.019531 L 92.902344 105.019531 C 93.863281 102.136719 93.863281 102.136719 95.425781 100.597656 L 97.28125 99.078125 L 99.144531 97.539062 Z M 100.582031 96.378906 " fill-opacity="1" fill-rule="nonzero"></path><path fill="#037db7" d="M 44.910156 40.699219 L 50.667969 44.539062 L 49.707031 47.417969 L 46.828125 47.417969 Z M 44.910156 40.699219 " fill-opacity="1" fill-rule="nonzero"></path><path fill="#0a77a1" d="M 109.21875 88.699219 L 111.140625 89.660156 L 104.421875 96.378906 C 104.421875 93.5 104.421875 93.5 105.199219 91.457031 L 106.339844 89.660156 Z M 195.605469 73.339844 L 198.484375 73.339844 L 196.566406 82.9375 L 195.605469 82.9375 Z M 424.050781 55.097656 L 425.972656 55.097656 C 425.25 56.898438 425.25 56.898438 424.050781 58.9375 C 422.011719 60.140625 422.011719 60.140625 420.210938 60.859375 C 420.511719 59.058594 420.511719 59.058594 421.171875 57.019531 Z M 515.238281 48.378906 C 516.96875 50.972656 518.121094 53.113281 519.078125 56.058594 L 518.117188 58.9375 L 516.199219 57.980469 C 515.800781 55.785156 515.800781 55.785156 515.597656 53.121094 L 515.378906 50.445312 Z M 26.671875 22.460938 C 29.039062 23.566406 30.558594 24.425781 32.429688 26.300781 L 31.472656 29.179688 C 29.613281 28.519531 29.613281 28.519531 27.632812 27.261719 C 26.910156 24.738281 26.910156 24.738281 26.671875 22.460938 " fill-opacity="1" fill-rule="nonzero"></path><path fill="#187690" d="M 26.671875 108.859375 L 28.589844 109.816406 L 28.589844 111.738281 L 30.511719 111.738281 L 28.589844 115.578125 L 26.671875 115.578125 Z M 26.671875 108.859375 " fill-opacity="1" fill-rule="nonzero"></path><path fill="#037db7" d="M 141.855469 22.460938 L 143.773438 22.460938 L 143.773438 29.179688 L 139.933594 27.261719 C 140.226562 25.972656 140.546875 24.695312 140.894531 23.421875 Z M 141.855469 22.460938 " fill-opacity="1" fill-rule="nonzero"></path><path fill="#656264" d="M 428.851562 136.699219 L 433.652344 137.65625 L 433.652344 141.496094 L 430.769531 140.539062 L 430.769531 138.617188 L 428.851562 138.617188 Z M 428.851562 136.699219 " fill-opacity="1" fill-rule="nonzero"></path><path fill="#187690" d="M 381.820312 108.859375 L 384.699219 108.859375 L 384.699219 114.617188 L 381.820312 113.65625 Z M 381.820312 108.859375 " fill-opacity="1" fill-rule="nonzero"></path><path fill="#0a77a1" d="M 281.035156 105.019531 C 283.265625 107.757812 284.632812 110.335938 285.832031 113.65625 L 282.953125 113.65625 Z M 281.035156 105.019531 " fill-opacity="1" fill-rule="nonzero"></path><path fill="#037db7" d="M 183.128906 102.136719 L 185.046875 103.097656 L 184.089844 106.9375 L 182.167969 106.9375 L 181.207031 108.859375 L 181.207031 103.097656 Z M 75.625 102.136719 L 79.464844 103.097656 L 79.464844 107.898438 C 78.144531 106.65625 76.863281 105.378906 75.625 104.058594 Z M 75.625 102.136719 " fill-opacity="1" fill-rule="nonzero"></path><path fill="#0a77a1" d="M 560.351562 85.820312 L 562.269531 85.820312 L 561.3125 91.578125 L 558.433594 91.578125 Z M 241.679688 81.980469 L 243.597656 81.980469 C 245.21875 83.660156 245.21875 83.660156 246.480469 85.820312 C 246.179688 87.980469 246.179688 87.980469 245.519531 89.660156 C 244.203125 87.761719 242.921875 85.84375 241.679688 83.898438 Z M 241.679688 81.980469 " fill-opacity="1" fill-rule="nonzero"></path><path fill="#ae3641" d="M 142.816406 78.140625 L 144.734375 79.097656 L 144.734375 83.898438 L 139.933594 81.980469 Z M 142.816406 78.140625 " fill-opacity="1" fill-rule="nonzero"></path><path fill="#0a77a1" d="M 499.878906 70.460938 L 502.761719 71.417969 L 502.761719 78.140625 L 500.839844 76.21875 C 500.457031 74.308594 500.136719 72.390625 499.878906 70.460938 M 420.210938 45.5 L 426.929688 45.5 L 425.972656 47.417969 C 423.03125 48.019531 423.03125 48.019531 420.210938 48.378906 Z M 420.210938 45.5 " fill-opacity="1" fill-rule="nonzero"></path><path fill="#ae3641" d="M 111.140625 108.859375 L 113.058594 108.859375 L 112.097656 112.699219 L 108.257812 113.65625 C 109.578125 111.257812 109.578125 111.257812 111.140625 108.859375 " fill-opacity="1" fill-rule="nonzero"></path><path fill="#037db7" d="M 381.820312 75.257812 L 387.578125 75.257812 L 387.578125 77.179688 L 382.777344 78.140625 Z M 381.820312 75.257812 " fill-opacity="1" fill-rule="nonzero"></path><path fill="#187690" d="M 585.308594 106.9375 C 586.664062 109.472656 587.585938 111.804688 588.1875 114.617188 L 585.308594 113.65625 Z M 585.308594 106.9375 " fill-opacity="1" fill-rule="nonzero"></path><path fill="#0a77a1" d="M 406.773438 108.859375 L 408.695312 108.859375 L 407.734375 113.65625 L 404.855469 113.65625 Z M 406.773438 108.859375 " fill-opacity="1" fill-rule="nonzero"></path><path fill="#037db7" d="M 441.328125 48.378906 L 444.207031 48.378906 L 444.207031 52.21875 L 439.410156 50.300781 Z M 441.328125 48.378906 " fill-opacity="1" fill-rule="nonzero"></path><path fill="#2095c5" d="M 318.46875 57.019531 L 322.308594 57.019531 L 321.347656 59.898438 L 318.46875 59.898438 Z M 318.46875 57.019531 " fill-opacity="1" fill-rule="nonzero"></path><path fill="#187690" d="M 153.371094 108.859375 L 155.292969 111.738281 L 155.292969 113.65625 L 152.414062 113.65625 Z M 153.371094 108.859375 " fill-opacity="1" fill-rule="nonzero"></path><path fill="#0a77a1" d="M 44.910156 40.699219 L 49.707031 43.578125 L 47.789062 45.5 C 46.347656 44.179688 46.347656 44.179688 44.910156 42.621094 Z M 44.910156 40.699219 " fill-opacity="1" fill-rule="nonzero"></path><path fill="#d62027" d="M 115.9375 107.898438 L 118.816406 107.898438 L 118.816406 110.777344 L 115.9375 110.777344 Z M 115.9375 107.898438 " fill-opacity="1" fill-rule="nonzero"></path><path fill="#0a77a1" d="M 63.148438 94.457031 L 66.984375 94.457031 L 66.984375 97.339844 L 63.148438 95.417969 Z M 425.972656 55.097656 L 424.050781 58.9375 L 422.132812 56.058594 C 424.050781 55.097656 424.050781 55.097656 425.972656 55.097656 " fill-opacity="1" fill-rule="nonzero"></path><path fill="#187690" d="M 141.855469 22.460938 L 143.773438 22.460938 L 143.773438 25.339844 L 139.933594 24.378906 Z M 141.855469 22.460938 " fill-opacity="1" fill-rule="nonzero"></path><path fill="#656264" d="M 26.671875 144.378906 L 29.550781 145.335938 L 29.550781 147.257812 L 26.671875 147.257812 Z M 26.671875 144.378906 " fill-opacity="1" fill-rule="nonzero"></path><path fill="#0a77a1" d="M 605.464844 20.539062 L 609.304688 21.5 L 609.304688 23.421875 L 605.464844 21.5 Z M 605.464844 20.539062 " fill-opacity="1" fill-rule="nonzero"></path><path fill="#187690" d="M 27.632812 112.699219 L 29.550781 112.699219 L 28.589844 115.578125 L 26.671875 115.578125 Z M 27.632812 112.699219 " fill-opacity="1" fill-rule="nonzero"></path><path fill="#0a77a1" d="M 444.207031 45.5 L 446.128906 46.460938 L 446.128906 48.378906 L 443.25 48.378906 Z M 444.207031 45.5 " fill-opacity="1" fill-rule="nonzero"></path><path fill="#187690" d="M 26.671875 22.460938 L 29.550781 23.421875 L 29.550781 25.339844 L 26.671875 24.378906 Z M 26.671875 22.460938 " fill-opacity="1" fill-rule="nonzero"></path><g clip-path="url(#104dae9267)"><g clip-path="url(#b7046b6ef4)"><g transform="matrix(1, 0, 0, 1, 208, 24)"><g clip-path="url(#a62ff664a0)"><g clip-path="url(#5f304a011d)"><g clip-path="url(#ea1794cf33)"><path fill="#047db7" d="M 0.925781 0.414062 L 16.511719 0.414062 L 16.511719 16 L 0.925781 16 Z M 0.925781 0.414062 " fill-opacity="1" fill-rule="nonzero"></path></g></g></g></g></g></g></svg>